<svg width="551" height="426" viewBox="0 0 551 426" fill="none" xmlns="http://www.w3.org/2000/svg">
<path d="M543.007 42.7646H427.102C422.688 42.7646 419.109 46.3434 419.109 50.7581V135.888C419.109 140.302 422.688 143.881 427.102 143.881H543.007C547.421 143.881 551 140.302 551 135.888V50.7581C551 46.3434 547.421 42.7646 543.007 42.7646Z" fill="#E1E5F0"/>
<path d="M493.946 115.963V119.823C493.946 120.221 493.904 120.365 493.827 120.511C493.749 120.656 493.634 120.77 493.489 120.848C493.343 120.926 493.199 120.968 492.801 120.968L448.15 120.968V114.818L492.801 114.818C493.199 114.818 493.343 114.859 493.489 114.937C493.634 115.015 493.749 115.129 493.827 115.275C493.904 115.42 493.946 115.564 493.946 115.963Z" fill="#D8DEED"/>
<path d="M539.389 103.663V107.523C539.389 107.921 539.348 108.065 539.27 108.211C539.192 108.356 539.078 108.471 538.932 108.549C538.787 108.626 538.642 108.668 538.244 108.668L448.15 108.668V102.518L538.244 102.518C538.642 102.518 538.787 102.559 538.932 102.637C539.078 102.715 539.192 102.829 539.27 102.975C539.348 103.12 539.389 103.265 539.389 103.663Z" fill="#F2F6FB"/>
<path d="M527.412 91.3627V95.2228C527.412 95.6209 527.371 95.7653 527.293 95.9108C527.215 96.0564 527.101 96.1706 526.955 96.2485C526.81 96.3263 526.665 96.3677 526.267 96.3677L448.151 96.3677V90.2178L526.267 90.2178C526.665 90.2178 526.81 90.2592 526.955 90.3371C527.101 90.4149 527.215 90.5291 527.293 90.6747C527.371 90.8202 527.412 90.9646 527.412 91.3627Z" fill="#D8DEED"/>
<path d="M500.287 79.0627V82.9228C500.287 83.3209 500.246 83.4653 500.168 83.6108C500.09 83.7563 499.976 83.8706 499.83 83.9484C499.685 84.0262 499.54 84.0677 499.142 84.0677L448.151 84.0677V77.9177L499.142 77.9177C499.54 77.9177 499.685 77.9592 499.83 78.037C499.976 78.1149 500.09 78.2291 500.168 78.3746C500.246 78.5202 500.287 78.6645 500.287 79.0627Z" fill="#D8DEED"/>
<path d="M513.673 66.7628V70.623C513.673 71.0211 513.632 71.1654 513.554 71.311C513.476 71.4565 513.362 71.5708 513.216 71.6486C513.071 71.7264 512.927 71.7679 512.528 71.7679L448.15 71.7679V65.6179L512.528 65.6179C512.927 65.6179 513.071 65.6594 513.216 65.7372C513.362 65.815 513.476 65.9293 513.554 66.0748C513.632 66.2204 513.673 66.3647 513.673 66.7628Z" fill="#D8DEED"/>
<path d="M262.227 29.5762H128.549C124.134 29.5762 120.555 33.1549 120.555 37.5696V135.888C120.555 140.303 124.134 143.882 128.549 143.882H262.227C266.641 143.882 270.22 140.303 270.22 135.888V37.5696C270.22 33.1549 266.641 29.5762 262.227 29.5762Z" fill="#F2F6FB"/>
<path d="M197.814 119.219C214.56 109.551 220.296 88.1344 210.625 71.3843C200.954 54.6342 179.539 48.8931 162.794 58.5613C146.048 68.2295 140.312 89.6458 149.983 106.396C159.654 123.146 181.068 128.887 197.814 119.219ZM189.246 104.378C180.694 109.316 169.758 106.384 164.82 97.8299C159.881 89.276 162.81 78.3392 171.362 73.4018C179.914 68.4645 190.85 71.3963 195.788 79.9502C200.727 88.5042 197.798 99.441 189.246 104.378Z" fill="#E1E5F0"/>
<mask id="mask0" mask-type="alpha" maskUnits="userSpaceOnUse" x="136" y="51" width="88" height="81">
<path d="M158.464 51.2032C137.762 63.1556 130.671 89.6318 142.627 110.339C154.582 131.047 181.057 138.144 201.759 126.192C222.461 114.239 229.552 87.7633 217.596 67.0557L202.86 75.5639C210.115 88.1305 205.812 104.198 193.249 111.451C180.685 118.705 164.619 114.398 157.363 101.831C150.108 89.2645 154.411 73.197 166.975 65.9435L158.464 51.2032Z" fill="white"/>
</mask>
<g mask="url(#mask0)">
<path d="M158.464 51.2032C137.762 63.1556 130.671 89.6318 142.627 110.339C154.582 131.047 181.057 138.144 201.759 126.192C222.461 114.239 229.552 87.7633 217.596 67.0557L202.86 75.5639C210.115 88.1305 205.812 104.198 193.249 111.451C180.685 118.705 164.619 114.398 157.363 101.831C150.108 89.2645 154.411 73.197 166.975 65.9435L158.464 51.2032Z" fill="white"/>
<path d="M159.207 51.107C136.264 58.9096 128.693 90.6629 140.649 111.37C152.604 132.078 189.004 139.304 202.502 126.096L194.093 110.411C181.474 117.697 165.261 114.36 158.005 101.793C150.75 89.2267 155.098 73.1331 167.717 65.8474L159.207 51.107Z" fill="#474BFF"/>
</g>
<path d="M245.898 69.2104H236.618C236.176 69.2104 235.818 69.5683 235.818 70.0098V79.159C235.818 79.6004 236.176 79.9583 236.618 79.9583H245.898C246.34 79.9583 246.698 79.6004 246.698 79.159V70.0098C246.698 69.5683 246.34 69.2104 245.898 69.2104Z" fill="#474BFF"/>
<path d="M245.898 84.9482H236.617C236.176 84.9482 235.818 85.3061 235.818 85.7476V94.8967C235.818 95.3382 236.176 95.6961 236.617 95.6961H245.898C246.339 95.6961 246.697 95.3382 246.697 94.8967V85.7476C246.697 85.3061 246.339 84.9482 245.898 84.9482Z" fill="white"/>
<path d="M245.898 100.686H236.617C236.176 100.686 235.818 101.044 235.818 101.486V110.635C235.818 111.076 236.176 111.434 236.617 111.434H245.898C246.339 111.434 246.697 111.076 246.697 110.635V101.486C246.697 101.044 246.339 100.686 245.898 100.686Z" fill="#E1E5F0"/>
<path d="M120.555 36.0408C120.555 32.4705 123.45 29.5762 127.021 29.5762H263.167C266.737 29.5762 269.632 32.4697 269.632 36.0408V42.5054H120.555V36.0408Z" fill="#E1E5F0"/>
<path d="M420.708 0H268.433C264.019 0 260.44 3.57877 260.44 7.9934V117.579C260.44 121.994 264.019 125.572 268.433 125.572H420.708C425.122 125.572 428.701 121.994 428.701 117.579V7.9934C428.701 3.57877 425.122 0 420.708 0Z" fill="#F2F6FB"/>
<mask id="mask1" mask-type="alpha" maskUnits="userSpaceOnUse" x="263" y="21" width="163" height="105">
<path d="M263.358 21.3604H425.783V123.851C425.783 124.734 425.068 125.45 424.182 125.45H264.959C264.075 125.45 263.358 124.737 263.358 123.851V21.3604Z" fill="white"/>
</mask>
<g mask="url(#mask1)">
<path d="M263.358 21.3604H425.783V123.851C425.783 124.734 425.068 125.45 424.182 125.45H264.959C264.075 125.45 263.358 124.737 263.358 123.851V21.3604Z" fill="#F2F6FB"/>
<path d="M353.135 120.578V129.436H361.404V134.161H327.737V129.436H336.006V120.578H297.443C296.559 120.578 295.843 119.865 295.843 118.979V108.766H393.298V118.979C393.298 119.862 392.583 120.578 391.698 120.578H353.135Z" fill="#D8DEED"/>
<path fill-rule="evenodd" clip-rule="evenodd" d="M295.843 55.4402C295.843 54.5577 296.558 53.8423 297.443 53.8423H391.698C392.582 53.8423 393.299 54.5591 393.299 55.4402V110.538H295.843V55.4402Z" fill="white"/>
<path d="M345.476 88.2306L344.843 88.239L344.848 88.2306H336.567C336.213 88.2306 336.076 87.9875 336.264 87.6831L342.026 78.3224C342.212 78.0201 342.518 78.0131 342.712 78.3101L346.933 84.8372L348.462 82.3483C348.646 82.0484 348.957 82.043 349.155 82.3335L352.696 87.5364C352.894 87.8282 352.768 88.0737 352.415 88.0847L349.446 88.1778L348.988 88.1839L349.016 88.2306C349.016 88.2306 348.731 88.2306 348.376 88.2306H345.476ZM348.934 79.5833C348.161 79.5833 347.534 78.944 347.534 78.1553C347.534 77.3666 348.161 76.7273 348.934 76.7273C349.707 76.7273 350.333 77.3666 350.333 78.1553C350.333 78.944 349.707 79.5833 348.934 79.5833Z" fill="#D8DEED"/>
</g>
<path d="M362.408 40.637H327.051C326.609 40.637 326.251 40.9948 326.251 41.4363V45.7251C326.251 46.1666 326.609 46.5245 327.051 46.5245H362.408C362.849 46.5245 363.207 46.1666 363.207 45.7251V41.4363C363.207 40.9948 362.849 40.637 362.408 40.637Z" fill="#D8DEED"/>
<path d="M380.885 31.0696H308.573C308.131 31.0696 307.773 31.4275 307.773 31.8689V36.1577C307.773 36.5992 308.131 36.9571 308.573 36.9571H380.885C381.327 36.9571 381.685 36.5992 381.685 36.1577V31.8689C381.685 31.4275 381.327 31.0696 380.885 31.0696Z" fill="#D8DEED"/>
<path d="M260.44 7.12009C260.44 3.18777 263.628 0 267.562 0H421.579C425.512 0 428.701 3.18691 428.701 7.12009V14.2402H260.44V7.12009Z" fill="#E1E5F0"/>
<path d="M270.004 10.3564C271.705 10.3564 273.084 8.97991 273.084 7.28186C273.084 5.58381 271.705 4.20728 270.004 4.20728C268.303 4.20728 266.924 5.58381 266.924 7.28186C266.924 8.97991 268.303 10.3564 270.004 10.3564Z" fill="#FF5645"/>
<path d="M280.054 10.3564C281.755 10.3564 283.134 8.97991 283.134 7.28186C283.134 5.58381 281.755 4.20728 280.054 4.20728C278.353 4.20728 276.974 5.58381 276.974 7.28186C276.974 8.97991 278.353 10.3564 280.054 10.3564Z" fill="#FFCB3D"/>
<path d="M290.429 10.3564C292.13 10.3564 293.508 8.97991 293.508 7.28186C293.508 5.58381 292.13 4.20728 290.429 4.20728C288.728 4.20728 287.349 5.58381 287.349 7.28186C287.349 8.97991 288.728 10.3564 290.429 10.3564Z" fill="#3ABF7C"/>
<path d="M341.812 323.173V294.437C341.812 277.011 341.812 259.625 341.812 242.24V215.582C341.812 214.623 325.226 213.823 305.282 213.823H301.126C281.222 213.823 264.596 214.623 264.596 215.582V323.253C264.596 324.212 281.182 325.012 301.126 325.012H305.282C325.186 325.051 341.812 324.212 341.812 323.173Z" fill="#D8DEED"/>
<path d="M223.869 418.774L224.029 418.854C224.869 419.294 225.948 419.054 226.347 418.295L273.149 332.326C273.588 331.526 273.229 330.527 272.389 330.087L272.229 330.007C271.39 329.568 270.311 329.808 269.911 330.567L258.321 351.829C250.767 365.738 243.213 379.607 235.62 393.515L223.11 416.456C222.67 417.255 223.03 418.295 223.869 418.774Z" fill="#D8DEED"/>
<path d="M340.053 328.609H310.758C293.012 328.609 275.267 328.609 257.562 328.609H230.384C229.425 328.609 228.585 329.408 228.585 330.367V330.567C228.585 331.526 229.385 332.326 230.384 332.326H340.133C341.093 332.326 341.932 331.526 341.932 330.567V330.367C341.932 329.408 341.093 328.609 340.053 328.609Z" fill="#D8DEED"/>
<path d="M354.362 416.456L341.852 393.515C334.299 379.606 326.745 365.738 319.151 351.829L307.561 330.567C307.161 329.808 306.082 329.528 305.243 330.007L305.083 330.087C304.243 330.527 303.884 331.566 304.323 332.325L351.125 418.295C351.524 419.054 352.604 419.334 353.443 418.854L353.603 418.774C354.442 418.295 354.802 417.255 354.362 416.456Z" fill="#D8DEED"/>
<path d="M211.989 421.652C211.029 421.652 210.189 420.852 210.189 419.853C210.189 418.854 210.989 418.055 211.989 418.055H275.534C276.534 418.055 277.334 418.854 277.334 419.853C277.334 420.852 276.534 421.652 275.534 421.652H211.989ZM328.766 421.652H288.684C287.747 421.652 286.926 420.96 286.926 420.13V419.577C286.926 418.746 287.707 418.055 288.684 418.055H328.727C329.665 418.055 330.485 418.746 330.485 419.577V420.13C330.563 420.96 329.743 421.652 328.766 421.652Z" fill="#FF5645"/>
<path d="M276.226 418.191C276.013 418.103 275.78 418.055 275.534 418.055H211.989C211.826 418.055 211.668 418.076 211.518 418.116C211.422 417.941 211.351 417.749 211.308 417.545V417.505C211.308 417.305 211.268 417.105 211.308 416.905C211.348 416.666 211.348 416.466 211.428 416.226C211.948 414.427 213.347 412.909 214.266 412.069C214.386 411.949 214.466 411.909 214.586 411.83C216.344 410.75 218.143 409.751 220.021 408.912C223.698 407.233 231.851 403.796 234.289 402.557C237.447 400.958 241.803 398.241 246.359 393.365C246.599 393.245 246.919 393.085 246.919 393.085L274.496 391.606C274.496 391.606 275.016 392.805 275.016 392.845L276.415 417.345C276.415 417.649 276.347 417.935 276.226 418.191ZM329.192 418.112C329.043 418.075 328.886 418.055 328.727 418.055H288.684C288.467 418.055 288.26 418.089 288.068 418.151L291.762 396.802L318.093 391.793L329.192 418.112Z" fill="#474961"/>
<path d="M314.393 328.841C318.58 347.615 322.616 367.036 326.198 386.34C326.38 387.293 326.7 389.514 325.625 391.592C323.64 395.396 318.654 395.153 306.692 396.452C292.609 398.032 286.708 399.791 283.583 395.9C282.528 394.655 282.192 393.344 282.083 392.749C281.161 387.299 278.896 378.203 276.123 367.287C277.306 372.761 278.46 378.243 279.576 383.717C279.776 384.667 280.135 386.883 279.097 388.98C277.181 392.819 272.19 392.661 260.254 394.164C246.201 395.985 240.333 397.845 237.139 394.006C236.061 392.779 235.702 391.473 235.582 390.88C232.668 375.328 218.216 330.096 212.587 297.646C212.587 297.566 212.547 297.527 212.547 297.448C210.751 286.961 217.497 277.147 227.518 275.801C230.831 275.366 234.145 274.931 237.458 274.495C238.068 274.417 238.675 274.371 239.279 274.358L239.273 274.345L287.845 269.807C319.346 269.474 335.097 269.307 335.097 269.307C335.217 274.64 336.304 294.912 335.905 302.524C335.275 314.553 332.561 326.114 319.134 328.756C317.675 328.855 316.086 328.879 314.393 328.841Z" fill="#474BFF"/>
<path opacity="0.176986" d="M314.379 328.908C311.438 315.712 308.422 302.833 305.437 290.537C303.205 281.36 294.889 275.283 285.967 276.278C282.646 276.657 279.325 277.035 276.005 277.414C265.962 278.588 259.041 288.282 260.65 298.794C260.648 298.873 260.688 298.913 260.686 298.992C261.178 302.158 261.751 305.447 262.387 308.819C260.628 301.815 258.863 294.943 257.11 288.245C255.058 280.414 248.582 274.935 241.171 274.247L287.938 269.877C319.439 269.544 335.19 269.377 335.19 269.377C335.31 274.71 336.397 294.983 335.998 302.595C335.368 314.624 332.653 326.185 319.226 328.826C317.738 328.927 316.112 328.951 314.379 328.908Z" fill="#444444"/>
<path d="M259.903 300.876L278.852 382.32C278.927 382.643 279.249 382.843 279.572 382.768C279.894 382.693 280.095 382.371 280.02 382.048L261.071 300.604C260.996 300.281 260.673 300.081 260.351 300.156C260.029 300.231 259.828 300.553 259.903 300.876Z" fill="#482D1F"/>
<path d="M299.791 189.099C305.961 184.294 312.843 181.825 320.437 181.692C332.609 181.48 333.735 185.321 331.605 192.827C331.575 192.934 331.54 193.038 331.501 193.14C331.575 193.189 331.648 193.239 331.722 193.29C332.521 193.849 333.72 194.729 334.959 196.008C336.038 197.087 338.084 197.68 340.642 207.632C341.561 211.149 342.673 219.932 346.589 225.863C350.506 231.795 352.69 238.439 346.589 242.839C341.825 246.276 337.604 246.639 329.988 247.852C330.645 254.817 330.579 260.638 329.923 264.664C330.608 267.595 330.83 269.34 330.59 269.9C317.356 270.22 309.473 270.419 306.942 270.499C300.707 270.699 283.637 272.291 267.742 271.14C263.745 267.343 263.938 254.473 263.938 254.473C264.009 252.456 264.079 250.518 264.149 248.656C253.693 245.967 247.961 243.42 246.952 241.013C245.343 237.179 248.31 229.18 249.03 227.102C250.429 223.145 253.534 216.173 254.269 212.588C256.544 201.485 259.581 198.326 260.66 197.247C261.899 195.968 267.077 191.501 274.936 190.393C277.37 190.05 283.083 189.576 292.073 188.973C292.166 188.969 292.204 189.075 292.189 189.291C294.693 189.11 297.246 188.958 299.791 189.099Z" fill="#FF5645"/>
<path opacity="0.176986" d="M299.8 189.355C305.999 184.49 312.919 181.992 320.56 181.858C332.732 181.646 333.858 185.487 331.728 192.993C331.688 193.134 331.641 193.271 331.585 193.403C326.253 189.818 320.651 189.272 317.772 189.193C317.692 189.153 317.612 189.153 317.532 189.153L303.344 188.953C301.708 188.884 301.891 188.814 302.652 189.643C301.704 189.497 300.753 189.406 299.8 189.355ZM279.636 235.241C279.687 233.513 281.103 232.138 282.832 232.138H301.281C301.296 232.138 301.311 232.138 301.326 232.138C303.092 232.163 304.503 233.615 304.478 235.38C304.438 238.225 304.918 240.388 305.919 241.87C307.009 243.485 308.669 244.633 310.898 245.314C311.907 245.622 312.595 246.553 312.595 247.607V259.32L269.321 260.842L269.709 248.225C269.739 247.224 270.388 246.348 271.336 246.027C274.849 244.837 277.118 243.497 278.142 242.007C279.044 240.696 279.542 238.441 279.636 235.241Z" fill="#444444"/>
<path d="M306.287 175.356L303.509 192.154C303.456 192.428 303.285 192.68 303.026 192.752C301.884 193.181 300.295 193.605 298.414 193.647C295.013 193.759 292.334 192.669 290.857 191.893C290.558 191.753 290.384 191.394 290.445 191.08L291.621 184.221C289.437 184.582 289.565 184.529 289.351 184.556C286.757 184.704 284.654 184.213 284.277 184.059C282.888 183.666 281.626 182.2 280.681 179.94C279.394 176.921 278.594 172.45 278.7 167.299C278.68 166.563 278.778 165.849 278.876 165.135L280.084 158.082C280.35 156.505 281.04 155.051 282.067 153.744C282.503 153.178 282.916 152.729 283.392 152.373C288.588 147.846 295.89 150.08 297.186 150.535C297.335 150.605 297.492 150.635 297.641 150.705C299.017 151.38 300.367 151.764 301.732 152.07C303.098 152.376 311.451 167.803 311.447 168.657C311.461 169.757 309.022 172.504 306.287 175.356ZM247.981 262.69L249.869 248.045L250.486 244.007L264.203 248.595L263.979 255.926C269.225 255.2 275.697 255.125 283.029 256.588C283.178 256.618 283.325 256.648 283.469 256.678C295.537 254.077 311.838 250.76 322.733 249.323L317.51 229.86C318.462 232.671 319.089 234.429 319.196 234.445C319.715 234.525 322.473 249.228 322.793 249.149C335.382 246.59 340.592 247.229 346.693 242.829C347.573 242.194 348.281 241.512 348.836 240.793C351.447 253.015 352.69 269.347 335.897 272.333L270.733 271.43L244.156 273.892C243.934 269.592 245.735 265.585 247.981 262.69Z" fill="#DB9E75"/>
<path d="M323.473 248.431C323.564 248.75 323.378 249.081 323.06 249.171C322.741 249.262 322.41 249.076 322.32 248.758C320.843 243.539 316.133 227.733 315.135 224.808C315.028 224.494 315.196 224.154 315.509 224.047C315.822 223.94 316.163 224.107 316.27 224.421C317.277 227.373 321.991 243.193 323.473 248.431ZM264.798 248.67C264.757 248.998 264.457 249.231 264.128 249.189C263.8 249.148 263.567 248.848 263.609 248.519L266.46 225.938C266.502 225.609 266.802 225.377 267.13 225.418C267.459 225.46 267.691 225.76 267.65 226.088L264.798 248.67Z" fill="#482D1F"/>
<path d="M291.624 184.205L294.63 183.624L290.938 188.215L291.624 184.205Z" fill="#482D1F"/>
<path d="M302.229 174.085L302.361 174.179C303.433 174.251 304.154 174.242 304.525 174.151C305.08 174.015 306.709 173.599 307.907 172.04C309.106 170.482 309.674 168.19 308.73 166.134C307.817 164.124 305.654 162.686 303.649 162.947C302.521 163.095 301.655 163.781 301.561 163.844C301.266 164.096 301.012 164.36 300.795 164.618L279.829 159.207C280.526 154.623 282.813 151.63 286.69 150.229C287.792 149.831 290.799 149.247 293.409 149.585C297.437 150.108 301.066 151.492 302.154 151.786C303.041 152.04 310.146 152.366 314.17 155.46C314.602 155.829 315.61 156.758 316.315 158.32C318.526 163.066 316.814 167.985 316.238 169.095C316.041 169.475 314.087 173.21 311.436 176.439C308.669 179.809 305.206 182.669 305.206 182.669C303.084 182.146 302.092 179.284 302.229 174.085ZM280.519 163.174C280.142 163.02 280.124 162.487 280.452 162.266C280.866 162.02 281.554 161.828 282.339 161.981C283.948 162.294 285.468 163.688 283.572 163.808C282.452 163.916 281.227 163.515 280.519 163.174ZM288.548 165.02C288.171 164.865 288.152 164.332 288.519 164.119C288.934 163.874 289.622 163.682 290.446 163.842C292.055 164.154 293.567 165.589 291.679 165.669C290.472 165.801 289.302 165.329 288.548 165.02Z" fill="#482D1F"/>
<path d="M283.038 166.555C282.869 167.214 282.538 168.29 282.069 168.606C281.288 169.065 280.806 166.935 281.553 165.818C281.848 165.346 282.138 165.321 282.444 165.421C282.9 165.591 283.13 166.084 283.038 166.555ZM290.084 167.802C289.993 168.477 289.78 169.575 289.296 169.97C288.578 170.522 287.845 168.426 288.482 167.246C288.738 166.767 289.035 166.703 289.349 166.764C289.82 166.855 290.136 167.324 290.084 167.802Z" fill="#482D1F"/>
<path d="M285.295 175.259C285.585 175.234 286.29 175.167 286.492 174.758C286.507 174.68 286.569 174.57 286.545 174.484C286.442 174.179 285.941 174.244 285.227 174.146C283.956 173.98 282.959 173.664 282.959 173.664C282.959 173.664 283.081 174.503 283.231 174.776C283.549 175.448 284.88 175.3 285.295 175.259Z" fill="#482D1F"/>
<path d="M282.77 170.884C282.61 171.312 282.869 171.813 283.302 171.975C283.398 172.003 283.398 172.003 283.46 172.02C284.112 172.2 284.523 172.299 285.233 172.437C285.45 172.479 285.66 172.338 285.702 172.121C285.744 171.905 285.602 171.695 285.386 171.653C284.697 171.519 284.306 171.424 283.673 171.25L283.548 171.215C283.547 171.213 283.52 171.161 283.523 171.154L284.931 167.061L284.945 167.007L285.395 164.692C285.437 164.476 285.296 164.266 285.079 164.224C284.862 164.181 284.652 164.323 284.61 164.54L284.166 166.827L282.77 170.884Z" fill="#482D1F"/>
<path opacity="0.2" d="M248.039 262.656C250.534 260.64 253.329 259.092 256.424 258.011C259.519 256.931 262.023 256.239 263.937 255.935L264.204 248.595L250.486 244.007L248.039 262.656Z" fill="#8C2A00"/>
<path d="M337.776 418.033H399.724C400.718 418.033 401.523 418.838 401.523 419.831C401.523 420.824 400.718 421.63 399.724 421.63H337.776C336.782 421.63 335.977 420.824 335.977 419.831C335.977 418.838 336.782 418.033 337.776 418.033ZM459.17 418.039L498.264 388.893C498.547 388.698 498.829 388.583 499.149 388.589C499.709 388.559 500.264 388.808 500.616 389.254L500.733 389.456C501.32 390.146 501.142 391.222 500.413 391.769L460.639 421.574L437.213 421.645C436.294 421.629 435.547 420.896 435.524 419.976L435.528 419.737C435.584 418.818 436.316 418.072 437.235 418.088L459.17 418.039Z" fill="#FFCB3D"/>
<path d="M400.413 418.062C400.201 417.974 399.968 417.925 399.724 417.925H337.775C337.585 417.925 337.402 417.955 337.23 418.01C337.245 417.884 337.264 417.756 337.296 417.627C337.775 415.709 338.375 414.43 340.173 413.271C341.972 412.112 343.81 411.073 345.729 410.154C352.803 406.676 355.241 406.676 359.877 403.519C361.796 402.2 363.554 400.681 365.193 399.043C366.285 397.95 368.657 396.165 372.307 393.687L405.687 394.794L400.413 418.062ZM498.967 388.492C498.72 388.524 498.493 388.629 498.264 388.786L459.169 417.932L437.235 417.981C437.212 417.98 437.189 417.98 437.166 417.981C437.084 417.743 437.046 417.494 437.05 417.236C437.095 416.956 437.1 416.636 437.185 416.317C437.695 414.404 438.542 413.183 440.347 412.054C442.152 410.924 443.763 409.866 445.682 408.979C449.455 407.157 451.919 406.333 454.09 405.485C454.412 404.929 454.719 404.356 455.016 403.737C455.386 402.943 457.021 398.806 457.741 395.678C458.221 393.593 458.909 391.129 459.807 388.287L460.37 386.054L484.91 368.292L498.967 388.492Z" fill="#474961"/>
<path d="M420.338 273.641C421.02 273.641 421.946 273.641 421.946 273.641C439.932 273.601 457.917 273.561 475.902 273.521C498.78 273.406 510.766 273.401 511.858 273.508C513.017 273.788 520.865 278.103 523.103 285.671C524.3 289.72 525.261 295.144 524.861 301.858C524.622 304.536 524.262 310.371 520.865 315.966C517.348 321.802 512.472 325.718 505.238 328.196C499.083 330.275 493.048 329.315 485.614 328.636H485.534C485.254 328.596 484.695 328.476 484.015 328.356L482.656 328.116C481.897 327.956 481.217 327.837 480.898 327.797H480.818C473.943 326.558 467.828 325.439 461.714 324.279L461.434 324.24C461.097 324.173 460.76 324.107 460.423 324.041C461.479 325.491 462.483 326.89 463.436 328.238C466.074 331.955 468.631 335.672 471.109 339.349L481.141 353.537C482.66 355.655 481.98 358.613 479.622 360.092L467.273 367.765L456.082 375.199L453.884 376.598C451.685 377.957 448.808 377.517 447.329 375.559C443.532 370.523 440.734 366.726 435.898 360.531C432.855 356.602 434.75 359.319 425.086 349.25C421.36 359.748 416.52 373.661 413.154 379.314C412.314 380.753 410.676 381.512 408.997 381.272L377.263 376.556C374.545 376.157 372.947 373.239 374.106 370.721C379.981 357.812 390.407 321.415 391.846 318.137C392.334 317.032 392.794 315.863 393.232 314.649C389.517 309.783 387.69 307.035 386.139 303.299C384.741 299.941 383.462 296.864 383.542 292.707C383.661 286.552 386.739 279.558 392.894 275.801C396.331 273.683 399.61 273.783 401.609 273.623C403.394 273.57 409.632 273.57 420.323 273.623C420.328 273.629 420.333 273.635 420.338 273.641Z" fill="#DE3190"/>
<path opacity="0.176986" d="M420.339 273.584C419.863 273.584 419.452 273.584 419.452 273.584C416.614 273.584 416.093 274.224 413.575 275.503C411.617 276.462 409.579 277.621 407.5 279.1C404.623 281.098 402.425 283.936 401.066 287.133C401.026 287.213 400.986 287.293 400.946 287.413C398.413 293.498 396.403 305.256 393.097 314.473C389.472 309.716 387.67 306.99 386.139 303.299C384.74 299.941 383.461 296.864 383.541 292.707C383.661 286.552 386.739 279.558 392.893 275.801C396.331 273.683 399.664 273.743 401.662 273.583C403.447 273.53 409.673 273.53 420.338 273.583L420.339 273.584ZM460.404 324.016C461.467 325.475 462.477 326.882 463.435 328.238C466.073 331.955 468.631 335.672 471.109 339.349L481.141 353.537C482.659 355.655 481.98 358.613 479.622 360.092L467.272 367.765L456.081 375.199L453.883 376.598C451.685 377.957 448.807 377.517 447.329 375.559C443.532 370.523 440.734 366.726 435.898 360.531C432.84 356.583 434.768 359.346 424.941 349.1C427.128 342.94 428.927 337.973 429.813 336.569C431.772 333.452 433.719 327.58 435.437 325.302C436.357 324.063 437.635 322.344 439.234 320.346C441.033 320.586 442.831 320.825 444.63 321.105C447.108 321.545 449.586 322.024 452.104 322.464C454.893 322.971 457.65 323.479 460.404 324.016Z" fill="#444444"/>
<path d="M431.618 311.93C433.8 314.834 434.474 315.649 435.176 316.335C435.823 316.968 436.465 317.745 438.613 320.603C438.811 320.868 439.187 320.921 439.452 320.722C439.717 320.523 439.77 320.147 439.571 319.883C437.389 316.979 436.716 316.164 436.014 315.478C435.367 314.845 434.725 314.068 432.577 311.21C432.378 310.945 432.002 310.892 431.737 311.091C431.473 311.29 431.419 311.665 431.618 311.93Z" fill="#482D1F"/>
<path d="M508.602 238.762L520.418 235.057C521.227 234.061 528.143 220.695 514.16 214.137C513.169 212.379 512.083 210.676 510.899 209.036C507.302 204 504.344 199.924 499.069 197.486C497.086 196.576 495.093 196.051 493.172 195.791C490.504 194.785 487.587 194.31 484.56 194.488L475.368 195.048C463.698 195.687 454.865 205.599 455.584 217.149L455.624 217.869L456.786 239.509L457.808 260.251L458.382 264.231C458.382 264.55 458.422 264.83 458.462 265.15C458.502 265.51 458.542 265.829 458.582 266.189C458.702 267.108 461.38 273.183 461.539 273.543L511.858 273.623L508.602 238.762Z" fill="#FFCB3D"/>
<path d="M453.793 376.543L455.904 375.199L467.095 367.765L479.283 360.192L485.706 369.474L460.717 386.434L453.793 376.543ZM378.073 376.703L408.82 381.272C408.938 381.289 409.057 381.301 409.175 381.308L405.688 394.794L372.307 393.687L378.073 376.703ZM485.085 179.639L484.475 184.331L484.224 187.919L483.749 194.721L475.303 195.235C474.099 195.301 472.924 195.466 471.787 195.721L472.226 189.78C472.058 189.807 471.886 189.835 471.709 189.862C468.142 190.454 468.347 190.388 468.105 190.412C465.491 190.549 463.403 190.043 463.013 189.895C459.793 188.949 457.266 182.122 457.455 173.12C457.465 172.4 457.555 171.685 457.645 170.97L458.859 163.923C459.13 162.34 459.794 160.864 460.8 159.652C461.238 159.122 461.67 158.671 462.137 158.303C467.341 153.779 474.637 156.012 475.927 156.463C476.084 156.514 476.241 156.565 476.398 156.616C477.794 157.275 479.127 157.688 480.509 157.985C481.141 158.11 481.538 158.738 481.413 159.371L479.429 169.408C479.243 170.357 486.986 166.289 487.12 174.594C487.434 176.636 486.455 178.515 485.085 179.639ZM457.694 254.113C458.598 253.962 459.621 253.796 460.783 253.613C473.489 251.629 484.218 250.128 493.167 248.919C493.164 248.917 493.161 248.916 493.158 248.914C492.769 248.207 491.887 246.349 490.78 243.967C491.055 243.981 491.335 243.991 491.622 243.996L520.058 235.078C520.308 235.75 520.561 236.432 520.815 237.124C525.553 250.048 528.151 256.993 527.589 261.835C527.622 261.84 527.654 261.845 527.685 261.848C527.651 261.879 527.61 261.972 527.552 262.119C527.528 262.285 527.5 262.448 527.468 262.609C527.438 262.596 527.407 262.584 527.376 262.571C526.731 264.204 524.849 268.306 518.253 272.281C512.743 275.602 488.443 276.049 445.353 273.623C445.311 273.59 445.268 273.558 445.226 273.525C440.65 273.161 435.653 272.2 430.232 270.641C431.76 271.084 433.26 271.481 434.73 271.83L413.711 269.056C410.153 268.122 400.08 265.385 392.458 263.337C390.011 262.7 387.596 262.071 385.455 261.512C381.019 260.353 377.741 259.474 377.741 259.474C377.981 254.678 385.575 255.877 388.972 256.676C393.129 256.876 397.285 257.116 401.482 257.316C402.129 257.146 402.894 256.959 403.756 256.8C400.646 254.655 404.178 252.934 414.351 251.636C419.635 250.962 423.659 251.666 427.762 252.825L449.622 248.768L449.59 248.74L456.249 229.81L456.878 240.414L456.918 240.814L457.694 254.113Z" fill="#F2A98A"/>
<path d="M484.881 179.671C483.825 180.439 482.687 180.68 481.961 180.749C481.517 180.798 481.096 181.089 480.948 181.48L478.267 188.304C478.267 188.304 478.142 188.375 477.858 188.435C477.16 188.667 475.444 189.148 471.717 189.729C468.15 190.321 468.355 190.255 468.113 190.278C465.499 190.416 463.411 189.909 463.021 189.762C459.802 188.815 457.274 181.988 457.463 172.987C457.474 172.266 457.564 171.551 457.654 170.836L458.868 163.79C459.139 162.206 459.803 160.73 460.809 159.518C461.247 158.988 461.679 158.538 462.145 158.169C467.349 153.646 474.645 155.878 475.936 156.329C476.093 156.38 476.249 156.431 476.406 156.482C477.802 157.141 479.136 157.555 480.517 157.852C481.149 157.976 481.546 158.605 481.422 159.237L479.438 169.275C479.251 170.223 486.994 166.156 487.128 174.46C487.459 176.606 486.36 178.573 484.881 179.671Z" fill="#F2A98A"/>
<path d="M471.888 192.958L476.502 188.657L471.888 189.685L471.888 192.958Z" fill="#482D1F"/>
<path d="M457.731 178.939C456.43 180.592 455.724 182.235 456.138 183.613C456.663 185.355 458.317 186.184 460.007 187.018C460.021 187.025 460.035 187.032 460.05 187.038C458.967 185.096 458.141 182.298 457.731 178.939ZM480.924 180.461C480.362 182.527 479.447 185.236 478.181 188.587C483.055 190.638 486.873 190.638 489.634 188.587C490.775 187.746 493.212 179.132 494.797 174.796C495.299 173.348 497.043 168.462 494.633 163.967C493.782 162.385 492.647 161.424 492.154 161.029C489.46 158.877 486.997 159.146 481.087 157.731C479.865 157.445 478.053 156.998 475.899 156.287C475.74 156.275 475.583 156.224 475.426 156.173C474.136 155.723 466.981 153.801 462.067 158.186C461.763 158.466 461.546 158.68 461.417 158.827C462.428 159.654 463.271 160.211 463.946 160.499C466.786 161.699 469.426 161.764 471.078 161.639C471.327 162.658 471.724 163.847 472.321 165.051C473.996 168.535 476.654 170.689 478.31 171.827C478.671 171.47 479.511 170.714 480.615 170.198C480.741 170.127 481.688 169.752 482.759 169.907C484.665 170.161 486.293 172.078 486.59 174.142C486.92 176.288 485.861 178.258 484.382 179.356C483.049 180.346 481.582 180.448 480.924 180.461Z" fill="#482D1F"/>
<path d="M497.816 252.212C498.106 252.37 498.471 252.263 498.629 251.972C498.788 251.682 498.681 251.318 498.39 251.159L493.394 248.433C493.104 248.274 492.74 248.381 492.581 248.672C492.422 248.962 492.529 249.326 492.82 249.485L497.816 252.212ZM484.235 227.551C484.355 227.242 484.202 226.895 483.893 226.775C483.585 226.655 483.237 226.808 483.117 227.116C483.019 227.369 482.952 227.553 482.852 227.861C482.699 228.334 482.558 228.852 482.438 229.41C481.658 233.033 482.029 236.678 484.222 239.853C486.03 242.459 488.442 243.945 490.935 244.734C491.251 244.834 491.588 244.659 491.688 244.343C491.788 244.027 491.613 243.691 491.297 243.591C489.034 242.874 486.84 241.523 485.208 239.17C483.232 236.309 482.894 232.991 483.61 229.662C483.721 229.145 483.852 228.666 483.993 228.229C484.084 227.948 484.144 227.783 484.235 227.551Z" fill="#482D1F"/>
<path opacity="0.2" d="M457.5 254.185L456.72 240.814L456.68 240.414L456.05 229.81L449.391 248.739L449.424 248.768L427.459 252.844C428.929 253.255 430.407 253.726 431.954 254.214C434.078 254.884 436.95 256.011 440.57 257.594C444.175 256.808 446.589 256.333 448.345 256.086C450.938 255.722 449.492 255.529 457.5 254.185H457.5ZM403.577 256.796C402.708 256.956 401.935 257.145 401.283 257.316C397.087 257.116 392.93 256.876 388.773 256.676C385.376 255.877 377.782 254.678 377.543 259.474C377.543 259.474 380.82 260.353 385.256 261.512C387.397 262.071 389.812 262.7 392.259 263.337C399.881 265.385 409.954 268.122 413.513 269.056L434.532 271.83C433.061 271.48 431.562 271.084 430.034 270.64C424.091 268.916 416.757 264.962 408.031 258.779C405.965 258.082 404.481 257.421 403.577 256.796Z" fill="#8C2A00"/>
<path d="M421.332 266.869C417.468 264.871 413.219 262.237 408.585 258.966L365.911 247.468C364.712 247.148 363.433 247.867 363.113 249.106C362.794 250.345 363.513 251.584 364.752 251.904L420.226 266.852C420.603 266.949 420.981 266.95 421.332 266.869V266.869Z" fill="#474961"/>
<path d="M460.234 171.276C460.16 172.028 460.073 173.247 459.631 173.707C458.913 174.451 457.888 172.185 458.43 170.85C458.675 170.305 459.016 170.122 459.345 170.192C459.889 170.265 460.264 170.728 460.234 171.276ZM469 172.323C468.927 173.075 468.84 174.293 468.398 174.754C467.68 175.497 466.655 173.232 467.197 171.897C467.442 171.351 467.783 171.168 468.112 171.238C468.656 171.311 469.031 171.774 469 172.323Z" fill="#482D1F"/>
<path d="M462.207 171.985L461.049 175.7C460.946 176.179 461.216 176.697 461.673 176.794C461.939 176.873 462.112 176.91 462.811 177.045C463.123 177.105 463.337 177.148 463.588 177.202C463.804 177.247 464.017 177.11 464.062 176.894C464.108 176.678 463.97 176.466 463.755 176.42C463.497 176.365 463.279 176.321 462.962 176.26C462.292 176.131 462.129 176.096 461.868 176.02C461.85 176.015 461.813 175.943 461.822 175.902L462.97 172.222C463.035 172.012 462.918 171.787 462.707 171.722C462.496 171.656 462.272 171.774 462.207 171.985Z" fill="#482D1F"/>
<path d="M463.666 179.685C463.945 179.655 464.642 179.49 464.807 179.078C464.825 178.993 464.89 178.873 464.862 178.822C464.758 178.576 464.237 178.644 463.54 178.63C462.302 178.591 461.296 178.377 461.296 178.377C461.296 178.377 461.477 179.175 461.618 179.428C461.918 180.029 463.22 179.769 463.666 179.685Z" fill="#482D1F"/>
<path d="M464.206 171.414C464.854 168.398 467.821 166.474 470.84 167.116C473.064 167.588 474.696 169.322 475.148 171.408L475.168 171.602L475.148 171.408C475.161 171.471 475.174 171.534 475.185 171.597L478.29 170.683C478.608 170.59 478.941 170.772 479.035 171.089C479.128 171.407 478.947 171.74 478.629 171.834L475.38 172.79C475.343 172.801 475.306 172.808 475.269 172.812C475.256 173.123 475.217 173.437 475.15 173.752C474.508 176.775 471.536 178.704 468.514 178.062C465.939 177.515 464.158 175.279 464.083 172.76C464.087 172.707 464.091 172.656 464.095 172.608L462.731 172.506L462.705 172.664C461.93 175.504 459.062 177.279 456.145 176.659C453.123 176.016 451.193 173.045 451.835 170.022C452.478 167 455.449 165.07 458.472 165.712C461.149 166.281 462.968 168.677 462.903 171.317L464.206 171.414ZM468.763 176.889C471.138 177.394 473.472 175.878 473.977 173.503C474.482 171.128 472.966 168.793 470.591 168.288C468.216 167.784 465.881 169.3 465.377 171.675C464.872 174.05 466.388 176.384 468.763 176.889ZM456.395 175.486C458.77 175.991 461.104 174.475 461.609 172.1C462.114 169.725 460.598 167.39 458.223 166.885C455.848 166.38 453.513 167.897 453.008 170.272C452.503 172.647 454.02 174.981 456.395 175.486Z" fill="#482D1F"/>
<path d="M413.113 417.922L413.273 418.002C414.112 418.442 415.191 418.202 415.591 417.443L462.392 331.473C462.832 330.674 462.472 329.675 461.633 329.235L461.473 329.155C460.634 328.716 459.555 328.956 459.155 329.715L447.565 350.977C440.011 364.886 432.457 378.754 424.863 392.663L412.354 415.604C411.914 416.403 412.274 417.443 413.113 417.922Z" fill="#D8DEED"/>
<path d="M528.121 327.757H502.916C487.648 327.757 472.38 327.757 457.147 327.757H433.765C432.939 327.757 432.217 328.556 432.217 329.515V329.715C432.217 330.674 432.905 331.474 433.765 331.474H528.189C529.015 331.474 529.737 330.674 529.737 329.715V329.515C529.737 328.556 529.015 327.757 528.121 327.757Z" fill="#D8DEED"/>
<path d="M543.605 415.604L531.096 392.663C523.542 378.754 515.988 364.886 508.394 350.977L496.804 329.715C496.404 328.955 495.325 328.676 494.486 329.155L494.326 329.235C493.487 329.675 493.127 330.714 493.567 331.473L540.368 417.442C540.768 418.202 541.847 418.482 542.686 418.002L542.846 417.922C543.685 417.442 544.045 416.403 543.605 415.604Z" fill="#D8DEED"/>
<path d="M540.035 214.632L536.238 245.326C533.92 263.911 531.641 282.496 529.323 301.04L525.806 329.497C525.686 330.496 526.366 331.495 527.325 331.615L527.525 331.655C528.484 331.775 529.363 331.055 529.523 329.976L543.791 215.031C543.911 214.032 543.232 213.033 542.273 212.913L542.073 212.873C541.074 212.753 540.154 213.552 540.035 214.632Z" fill="#D8DEED"/>
<path d="M522.223 268.978H213.278C211.733 268.978 210.48 270.23 210.48 271.775C210.48 273.321 211.733 274.573 213.278 274.573H522.223C523.768 274.573 525.021 273.321 525.021 271.775C525.021 270.23 523.768 268.978 522.223 268.978Z" fill="#D8DEED"/>
<path d="M8.423 425.649C7.38386 425.649 6.58452 424.957 6.62448 424.127V423.574C6.62448 422.743 7.46379 422.052 8.423 422.052H49.3892C50.3884 422.052 51.1877 422.743 51.1877 423.574V424.127C51.1877 424.957 50.3484 425.649 49.3892 425.649H8.423ZM99.7179 422.052H163.265C164.259 422.052 165.064 422.857 165.064 423.85C165.064 424.844 164.259 425.649 163.265 425.649H99.7179C98.7246 425.649 97.9194 424.844 97.9194 423.85C97.9194 422.857 98.7246 422.052 99.7179 422.052Z" fill="#3ABF7C"/>
<path d="M71.1504 286.001C70.0913 308.27 68.2808 340.717 65.7188 383.345C65.5751 385.736 63.6894 387.654 61.3012 387.839C48.6703 388.816 42.3549 389.304 42.3549 389.304C39.1397 389.238 35.8846 389.175 32.4553 388.952C31.0866 388.897 29.6705 388.758 28.2545 388.62C19.0235 386.704 12.578 384.958 3.34703 383.042C1.54635 382.629 -1.18335 378.85 0.557746 372.622C2.29884 366.394 7.65061 330.475 11.9566 304.108C11.5924 299.851 11.63 295.602 12.2326 291.391C12.9021 286.555 24.5919 205.608 25.9578 197.658C27.0262 182.769 34.29 176.271 42.6533 173.522C44.89 172.786 46.5806 170.179 49.9594 169.055C53.0149 168.039 59.63 167.412 69.8047 167.173C73.1036 166.426 81.2401 166.682 86.8739 169.932C89.1056 171.22 92.0528 174.062 95.643 180.835C99.2332 187.608 120.192 252.093 120.632 264.013C124.469 274.995 127.626 285.282 129.465 291.569C131.143 297.284 131.143 301.856 131.303 303.203C135.739 338.596 153.565 370.397 145.252 378.153C143.973 379.337 137.138 380.684 123.47 383.42C122.59 383.583 121.791 383.746 121.791 383.746C118.394 384.399 115.196 384.889 111.999 385.338C111.999 385.338 96.8914 388.277 79.7456 386.971C76.9817 386.752 74.1167 353.096 71.1504 286.001Z" fill="#A339FF"/>
<path opacity="0.176986" d="M86.8739 169.791C89.1056 171.079 92.0528 173.921 95.643 180.694C99.2332 187.467 120.192 251.952 120.632 263.872C124.469 274.854 127.626 285.141 129.465 291.428C131.143 297.143 131.143 301.715 131.303 303.062C135.739 338.455 153.565 370.256 145.252 378.012C143.973 379.196 137.138 380.543 123.469 383.279C122.59 383.442 121.791 383.605 121.791 383.605C118.394 384.258 115.196 384.748 111.999 385.197C111.999 385.197 96.8914 388.137 79.7456 386.83C76.9608 386.61 74.0733 352.443 71.083 284.331C71.7775 269.538 72.1247 259.45 72.1247 254.065C73.3517 244.492 74.5352 234.878 75.7622 225.304C76.8428 203.559 77.0579 188.809 76.4074 181.056C76.332 180.158 75.8479 175.493 74.955 167.062L86.8739 169.791Z" fill="#444444"/>
<path d="M49.405 422.052H8.86719L21.0523 398.573L43.194 401.251L49.405 422.052ZM164.07 422.228C163.834 422.115 163.57 422.052 163.292 422.052H99.7439C99.6096 422.052 99.4786 422.067 99.3526 422.094L103.655 397.654L128.699 396.873L135.893 402.108C137.572 403.707 139.33 405.226 141.289 406.505C145.965 409.582 148.403 409.542 155.517 412.939C157.435 413.819 159.314 414.858 161.112 415.977C161.992 416.776 163.55 418.375 164.07 420.293C164.15 420.613 164.15 420.933 164.19 421.212C164.199 421.574 164.153 421.913 164.07 422.228Z" fill="#474961"/>
<path d="M39.6617 201.855C39.6617 201.855 51.7717 227.674 45.6967 228.913C45.6967 228.913 42.0597 226.954 39.4219 220.719" fill="#482D1F"/>
<path d="M8.9645 208.355L3.76879 243.086C3.60892 244.165 4.32833 245.164 5.40744 245.364L51.7292 252.318C52.8083 252.478 53.8075 251.759 54.0073 250.68L59.2031 215.948C59.3629 214.869 58.6435 213.87 57.5644 213.67L11.2426 206.716C10.1235 206.556 9.12437 207.316 8.9645 208.355Z" fill="#F2F6FB"/>
<path d="M54.2016 220.312L50.2449 245.771C50.045 246.85 50.8044 247.849 51.8835 248.049L55.6005 248.648C56.6796 248.848 57.6787 248.089 57.8786 247.01L61.8353 221.551C62.0352 220.472 61.2758 219.472 60.1967 219.273L56.4797 218.673C55.4006 218.473 54.4014 219.233 54.2016 220.312Z" fill="#3ABF7C"/>
<path d="M76.2964 109.977C79.133 108.833 83.4653 107.948 87.9065 110.434C91.689 112.508 90.8584 115.356 97.3684 121.827C100.596 125.027 103.423 127.002 103.221 129.524C103.096 130.974 102.071 131.987 101.26 132.633C97.6053 134.097 93.9415 135.554 90.2734 137.012L90.4165 149.309L90.423 149.682L90.6639 156.544L90.6639 158.906C90.6641 166.689 84.6324 173.139 76.8675 173.661L51.3661 175.374C46.0804 175.73 41.5077 171.733 41.1525 166.447C41.139 166.245 41.1318 166.043 41.131 165.841L41.0454 143.448C36.914 143.728 32.7829 144.006 28.6523 144.28C27.3529 144.04 25.6465 143.508 24.8899 142.127C23.5411 139.666 26.2455 136.334 28.9366 131.47C34.3189 121.742 32.0827 119.293 35.9159 115.294C41.228 109.745 48.2856 109.001 52.1871 109.037C53.0744 109.025 53.9819 109.177 54.84 109.403L54.9392 109.455C56.7958 108.889 58.7681 108.578 60.8122 108.563L69.6768 108.52C71.9784 108.495 74.207 109.025 76.2964 109.977Z" fill="#3ABF7C"/>
<path d="M45.235 388.908L43.1942 401.251C43.1942 401.251 35.827 400.358 21.0924 398.573C21.1908 394.208 21.265 390.343 21.315 386.978C23.455 387.463 25.6862 387.954 28.1094 388.457C29.5254 388.596 30.9415 388.735 32.3102 388.789C35.7395 389.013 38.9946 389.076 42.2098 389.142L45.235 388.908ZM127.706 382.38L128.699 396.873L103.655 397.654C103.655 397.654 102.674 392.348 101.512 386.543C107.801 385.964 111.854 385.176 111.854 385.176C115.051 384.727 118.249 384.237 121.646 383.584C121.646 383.584 122.445 383.42 123.324 383.257C124.872 382.947 126.332 382.656 127.706 382.38ZM62.6752 101.635L60.7577 94.6422C60.6126 94.2253 59.058 93.6398 58.186 92.951C56.6359 91.6899 56.2852 89.5531 56.5773 87.4207C57.0148 85.3757 58.819 83.5254 60.7577 83.3715C61.4848 83.3138 62.1826 83.4693 62.8803 83.7897L62.9288 83.8188C63.171 83.9643 63.4618 83.9742 63.7042 83.955C64.3731 83.8294 64.8484 83.2578 64.7616 82.5792L63.3335 72.2257C63.208 71.5568 63.6445 70.9948 64.3134 70.8692C65.7773 70.6278 67.1734 70.2797 68.5599 69.7281C68.7538 69.6797 68.9089 69.6411 69.064 69.6024C70.4504 69.2155 77.9834 67.3785 83.0402 72.2963C83.4955 72.8007 83.9411 73.2662 84.3188 73.7899C85.2583 75.0797 85.8486 76.6214 86.0511 78.2597L86.8705 85.5109C86.9282 86.2379 86.9471 86.9746 86.9272 87.721C86.5822 96.9102 83.631 103.742 80.2863 104.535C78.5606 104.883 76.777 104.998 75.0323 104.774C74.7966 104.721 74.9541 104.771 72.3442 104.206L72.3105 108.307C76.6623 109.145 78.4272 110.756 78.4272 110.756C78.2605 111.81 77.8721 112.558 77.39 113.112C74.4263 116.565 65.4905 114.826 55.128 109.3C57.3794 108.772 59.4398 108.406 61.3208 108.17C61.7724 105.996 62.2344 104.04 62.6752 101.635ZM90.559 159.501C90.5696 159.272 90.5749 159.042 90.5749 158.81L90.5749 156.448L90.334 149.586L90.3275 149.213L90.1831 136.807C93.9501 135.311 97.7127 133.814 101.466 132.311C101.673 132.146 101.895 131.957 102.111 131.742L112.203 145.065C114.848 142.868 127.213 133.478 134.942 127.627C145.589 118.104 166.136 99.9175 166.136 99.9175C168.739 101.813 166.886 107.713 163.777 114.083C165.092 114.949 166.503 116.646 168.011 119.176C169.493 121.663 168.986 124.854 166.805 126.759L154.577 137.444C142.266 152.113 120.963 173.622 114.797 175.773C108.143 178.094 99.5089 171.082 90.559 159.501ZM29.3346 144.068C38.3843 143.467 47.4366 142.845 56.4875 142.234L39.8508 212.436C39.8418 212.436 39.8328 212.437 39.8238 212.438L47.2132 243.105C47.3885 243.833 47.0356 244.585 46.3639 244.915C44.0621 246.046 41.0955 246.59 37.4639 246.549C31.077 246.476 26.6728 244.034 26.6728 243.998C21.7835 233.158 19.0062 224.752 18.3408 218.781C18.2503 217.968 18.2426 217.071 18.3176 216.088C18.2917 216.079 18.2657 216.07 18.2397 216.061L29.3346 144.068Z" fill="#BF865F"/>
<path opacity="0.176986" d="M75.8286 110.219C78.5859 108.977 83.1024 107.745 87.9064 110.434C91.6889 112.508 90.8583 115.356 97.3683 121.827C100.596 125.027 103.248 126.885 103.248 129.416C103.248 130.834 102.341 131.738 101.466 132.311C97.7115 133.814 93.9457 135.319 90.1827 136.778L89.9157 128.751C89.944 123.919 88.5694 119.558 85.7921 115.668C83.6456 112.661 80.3244 110.845 75.8286 110.219Z" fill="#444444"/>
<path opacity="0.2" d="M90.559 159.501C90.5696 159.272 90.5749 159.042 90.5749 158.81L90.5749 156.448L90.334 149.586L90.3275 149.213L90.1831 136.807C93.9501 135.311 97.7127 133.814 101.466 132.311C101.673 132.146 101.895 131.957 102.111 131.742L112.203 145.065C114.848 142.868 127.213 133.478 134.942 127.627C145.589 118.103 166.136 99.9175 166.136 99.9175C168.74 101.813 166.886 107.713 163.777 114.083C165.092 114.948 166.503 116.646 168.011 119.176C169.493 121.663 168.986 124.854 166.805 126.759L154.577 137.444C142.266 152.113 120.963 173.622 114.797 175.773C108.143 178.094 99.5089 171.082 90.559 159.501Z" fill="#8C2A00"/>
<path d="M36.8769 231.951C36.8022 231.628 37.0032 231.306 37.3258 231.231C37.6484 231.157 37.9704 231.358 38.045 231.68C38.5081 233.681 38.9336 235.232 39.9332 238.688C40.9389 242.164 41.3683 243.73 41.8378 245.759C41.9125 246.081 41.7115 246.403 41.3889 246.478C41.0663 246.553 40.7443 246.352 40.6697 246.029C40.2066 244.028 39.7811 242.477 38.7815 239.021C37.7758 235.545 37.3464 233.98 36.8769 231.951ZM28.7331 230.548C28.6386 230.23 28.8193 229.896 29.1366 229.802C29.4539 229.708 29.7878 229.888 29.8823 230.205C30.5341 232.395 30.9857 234.053 31.9488 237.71C32.9088 241.355 33.358 243.004 34.0051 245.178C34.0996 245.495 33.9189 245.829 33.6016 245.923C33.2842 246.018 32.9504 245.837 32.8559 245.52C32.2041 243.33 31.7525 241.673 30.7894 238.015C29.8294 234.37 29.3802 232.721 28.7331 230.548ZM55.6088 142.604C55.6154 142.273 55.8885 142.011 56.219 142.017C56.2459 142.017 56.2931 142.016 56.3577 142.012C56.4646 142.005 56.5831 141.992 56.7099 141.971C57.0625 141.913 57.4122 141.808 57.7334 141.646C58.7856 141.114 59.3451 140.099 59.1687 138.319C59.0304 136.936 58.832 135.729 58.5897 134.689C58.4189 133.956 58.2371 133.352 58.057 132.869C57.9527 132.59 57.8754 132.418 57.8374 132.347C57.6816 132.055 57.7922 131.692 58.0843 131.536C58.3764 131.38 58.7396 131.49 58.8954 131.783C58.9584 131.901 59.0576 132.121 59.1803 132.45C59.3785 132.981 59.5751 133.635 59.7574 134.417C60.0116 135.507 60.2183 136.766 60.3618 138.2C60.5872 140.474 59.7676 141.961 58.2739 142.716C57.8344 142.938 57.3695 143.078 56.9036 143.154C56.6121 143.202 56.3715 143.217 56.2057 143.216L56.1962 143.215C55.8652 143.209 55.6022 142.935 55.6088 142.604Z" fill="#482D1F"/>
<path d="M48.38 88.522C41.5568 93.2771 33.9097 93.0727 30.0258 89.4686C27.071 86.7041 26.5214 82.1866 26.4442 81.5468C25.6631 75.1099 30.9571 73.0485 31.4031 72.8549C31.4031 72.8549 37.9304 67.1496 48.839 76.8693C48.8733 76.9 48.9076 76.9309 48.9421 76.9621C49.5888 75.8376 50.5044 74.9075 51.5355 74.1375C54.4255 72.0165 56.9456 72.3767 63.1405 71.1205C64.4007 70.8887 66.3501 70.3424 68.6575 69.6847C68.8514 69.6364 69.0065 69.5977 69.1616 69.559C70.548 69.1721 77.9835 67.3785 83.0403 72.2963C83.0308 72.4188 78.7072 87.5498 67.2118 89.3861H67.2118L65.2152 85.8849C64.6341 85.0412 63.8494 84.3719 62.9482 83.8963C62.2505 83.576 61.5527 83.4205 60.8256 83.4782C58.8868 83.632 57.0827 85.4823 56.6452 87.5274C56.2465 89.5627 56.9818 91.6861 58.6095 92.9278C59.6356 93.7728 60.8899 94.2381 62.2314 94.2389C62.4456 97.4316 62.7031 101.867 62.7031 101.867C62.7031 101.867 62.0418 101.867 61.7445 101.867C61.4495 101.867 51.6374 98.9478 48.38 88.522ZM80.8034 84.9652C80.0472 85.2361 78.7674 85.5552 77.6625 85.4188C75.753 85.1946 77.4114 83.9161 79.0788 83.6652C79.8641 83.5106 80.5133 83.8018 80.9494 84.0638C81.2594 84.316 81.1815 84.8297 80.8034 84.9652ZM88.2962 83.6125C87.5593 83.961 86.357 84.4255 85.1841 84.3472C83.2358 84.2975 84.7295 82.8541 86.4067 82.4771C87.2695 82.3032 87.8898 82.4781 88.3646 82.7304C88.7037 82.9342 88.6646 83.4382 88.2962 83.6125Z" fill="#482D1F"/>
<path d="M85.4583 88.8471C85.0611 88.4106 85.0715 87.2959 85.1011 86.5883C85.1014 86.0939 85.5378 85.6968 85.9837 85.668C86.2745 85.6778 86.6331 85.7944 86.7685 86.3373C87.1748 87.6365 86.02 89.6132 85.4583 88.8471ZM78.8624 89.6443C78.4265 89.2175 78.4756 88.0931 78.5052 87.3855C78.5055 86.8911 78.9419 86.494 79.3879 86.4652C79.6787 86.4751 80.0372 86.5916 80.1726 87.1345C80.5789 88.4337 79.4629 90.4008 78.8624 89.6443Z" fill="#482D1F"/>
<path d="M85.0513 91.9521L84.6876 87.7007L84.7946 85.352C84.8046 85.1315 84.634 84.9446 84.4135 84.9346C84.193 84.9246 84.0061 85.0952 83.9961 85.3157L83.8879 87.6905L83.889 87.7427L84.2546 92.0178C84.2558 92.0331 84.2278 92.0631 84.1561 92.0705L84.1144 92.0771C83.6963 92.1653 83.1891 92.2102 82.594 92.2102C82.3732 92.2102 82.1943 92.3891 82.1943 92.6099C82.1943 92.8306 82.3732 93.0095 82.5939 93.0095C83.2327 93.0095 83.788 92.9612 84.261 92.863C84.7348 92.8032 85.0881 92.416 85.0513 91.9521Z" fill="#482D1F"/>
<path d="M50.7671 78.3245C50.7671 78.3245 51.7044 83.0749 48.9665 89.9361L55.6566 87.3619L55.5427 83.436L50.7671 78.3245Z" fill="#482D1F"/>
<path d="M72.5024 104.21L69.0908 103.413L72.2369 110.249L72.5024 104.21Z" fill="#482D1F"/>
<path d="M82.3525 96.224C82.0617 96.2141 81.3444 96.1458 81.1508 95.6998C81.1315 95.6222 81.0637 95.5155 81.0832 95.4283C81.1512 95.2054 82.4404 95.0899 82.4404 95.0899C84.0593 94.9746 84.4762 94.8295 84.6118 95.0428C84.6796 95.1495 84.6795 95.3143 84.4078 95.7115C84.1263 96.3996 82.8081 96.234 82.3525 96.224Z" fill="#482D1F"/>
</svg>
