<svg width="702" height="377" viewBox="0 0 702 377" fill="none" xmlns="http://www.w3.org/2000/svg">
<path d="M486.05 56.6021H292.357C286.621 56.6021 281.971 61.2519 281.971 66.9877V111.127C281.971 116.863 286.621 121.513 292.357 121.513H486.05C491.786 121.513 496.435 116.863 496.435 111.127V66.9877C496.435 61.2519 491.786 56.6021 486.05 56.6021Z" fill="#D8DEED"/>
<path d="M463.954 108.137C453.603 108.137 445.212 99.7393 445.212 89.38C445.212 79.0207 453.603 70.6228 463.954 70.6228C474.304 70.6228 482.695 79.0207 482.695 89.38C482.695 99.7393 474.304 108.137 463.954 108.137ZM463.944 89.1265C466.496 89.1265 468.565 87.0838 468.565 84.5639C468.565 82.0441 466.496 80.0014 463.944 80.0014C461.392 80.0014 459.323 82.0441 459.323 84.5639C459.323 87.0838 461.392 89.1265 463.944 89.1265ZM463.944 91.4078C459.318 91.4078 455.568 95.1102 455.568 99.6774H472.32C472.32 95.1102 468.57 91.4078 463.944 91.4078ZM301.942 87.5042H410.439C411.013 87.5042 411.478 87.9692 411.478 88.5428V93.9685C411.478 94.5421 411.013 95.0071 410.439 95.0071H301.942C301.368 95.0071 300.903 94.5421 300.903 93.9685V88.5428C300.903 87.9692 301.368 87.5042 301.942 87.5042ZM301.942 99.6964H419.81C420.383 99.6964 420.848 100.161 420.848 100.735V106.161C420.848 106.734 420.383 107.199 419.81 107.199H301.942C301.368 107.199 300.903 106.734 300.903 106.161V100.735C300.903 100.161 301.368 99.6964 301.942 99.6964Z" fill="#F2F6FB"/>
<path d="M421.684 75.312H301.942C301.368 75.312 300.903 75.777 300.903 76.3506V81.7763C300.903 82.3499 301.368 82.8149 301.942 82.8149H421.684C422.258 82.8149 422.723 82.3499 422.723 81.7763V76.3506C422.723 75.777 422.258 75.312 421.684 75.312Z" fill="#E1E5F0"/>
<path d="M423.735 0H230.042C224.307 0 219.657 4.64983 219.657 10.3857V54.5248C219.657 60.2606 224.307 64.9105 230.042 64.9105H423.735C429.471 64.9105 434.121 60.2606 434.121 54.5248V10.3857C434.121 4.64983 429.471 0 423.735 0Z" fill="#F2F6FB"/>
<path d="M257.331 51.2265C246.981 51.2265 238.59 42.8286 238.59 32.4693C238.59 22.11 246.981 13.7122 257.331 13.7122C267.682 13.7122 276.073 22.11 276.073 32.4693C276.073 42.8286 267.682 51.2265 257.331 51.2265ZM257.322 32.2158C259.874 32.2158 261.943 30.1731 261.943 27.6533C261.943 25.1335 259.874 23.0907 257.322 23.0907C254.769 23.0907 252.7 25.1335 252.7 27.6533C252.7 30.1731 254.769 32.2158 257.322 32.2158ZM257.322 34.4971C252.696 34.4971 248.946 38.1996 248.946 42.7667H265.698C265.698 38.1996 261.948 34.4971 257.322 34.4971ZM286.482 28.7179H394.979C395.553 28.7179 396.018 29.1829 396.018 29.7565V35.1822C396.018 35.7558 395.553 36.2207 394.979 36.2207H286.482C285.908 36.2207 285.443 35.7558 285.443 35.1822V29.7565C285.443 29.1829 285.908 28.7179 286.482 28.7179ZM286.482 40.91H413.721C414.294 40.91 414.759 41.375 414.759 41.9486V47.3743C414.759 47.9479 414.294 48.4129 413.721 48.4129H286.482C285.908 48.4129 285.443 47.9479 285.443 47.3743V41.9486C285.443 41.375 285.908 40.91 286.482 40.91Z" fill="#D8DEED"/>
<path d="M368.741 16.5259H286.482C285.908 16.5259 285.443 16.9909 285.443 17.5644V22.9902C285.443 23.5638 285.908 24.0287 286.482 24.0287H368.741C369.315 24.0287 369.78 23.5638 369.78 22.9902V17.5644C369.78 16.9909 369.315 16.5259 368.741 16.5259Z" fill="#E1E5F0"/>
<path d="M697.917 278.336H501.109V355.709H697.917V278.336Z" fill="#F2F6FB"/>
<path d="M536.939 128.782V148.515C536.939 168.304 520.898 184.346 501.109 184.346V164.613C501.109 144.824 517.151 128.782 536.939 128.782ZM658.452 128.782C678.241 128.782 694.282 144.824 694.282 164.613V184.346C674.494 184.346 658.452 168.304 658.452 148.515V128.782ZM493.839 349.478H701.552V359.344H493.839V349.478Z" fill="#E1E5F0"/>
<path d="M515.23 181.456C510.897 183.316 506.123 184.346 501.109 184.346V247.179H532.786L515.23 181.456ZM694.283 184.346C689.269 184.346 684.496 183.316 680.163 181.456L662.607 247.179H694.283V184.346ZM701.553 359.344V377H493.839V359.344H701.553ZM493.839 349.478V173.441C493.839 144.762 517.088 121.512 545.768 121.512H649.624C678.304 121.512 701.553 144.762 701.553 173.441V349.478H493.839ZM694.283 349.478V173.441C694.283 148.777 674.289 128.782 649.624 128.782H545.768C521.104 128.782 501.109 148.777 501.109 173.441V349.478H694.283Z" fill="#D8DEED"/>
<path d="M584.042 255.841L595.363 252.466C611.824 250.025 626.312 257.035 630.466 272.198L648.595 348.844L648.745 349.478H624.071H580.984L565.037 295.618C560.83 280.403 569.087 260.099 584.042 255.841Z" fill="#FF5645"/>
<path d="M627.818 300.863L599.102 294.476C598.167 294.268 597.596 293.333 597.803 292.399L598.686 288.504C598.894 287.569 599.829 286.998 600.763 287.206L629.48 293.593C630.414 293.801 630.986 294.735 630.778 295.67L629.895 299.565C629.687 300.447 628.753 301.071 627.818 300.863Z" fill="#FF4B38"/>
<path d="M575.163 261.259C575.163 261.259 574.176 265.206 579.421 264.115C584.665 263.025 586.171 262.505 586.171 262.505L584.821 258.922L575.163 261.259Z" fill="#482D1F"/>
<path d="M634.361 342.267C638.411 334.478 642.687 315.546 647.187 285.471L618.993 287.387C615.979 298.702 614.472 304.36 614.472 304.36L603.879 254.041C601.282 249.367 595.986 252.068 590.378 257.053C590.066 257.364 583.471 253.937 583.367 254.041C587.21 276.163 585.548 299.582 589.391 321.704C591.728 334.137 595.998 343.826 602.201 350.771C604.182 352.989 606.774 354.57 609.653 355.317C620.181 358.047 628.417 353.697 634.361 342.267Z" fill="#DB9E75"/>
<path d="M614.68 304.412L619.821 321.756" stroke="#482D1F" stroke-width="3" stroke-linecap="round" stroke-linejoin="round"/>
<path d="M602.788 260.065C602.581 260.168 602.269 260.272 602.009 260.22L588.456 260.584L578.953 260.792C575.734 262.09 568.983 264.271 568.256 259.649C568.256 259.649 577.188 255.962 583.471 253.262L583.938 252.847C584.354 252.483 584.717 252.275 585.236 252.12C585.34 252.068 585.444 252.068 585.548 252.068L588.041 251.704L593.441 250.925L596.972 250.406L599.569 250.042C601.957 249.679 604.086 251.6 604.035 253.989L603.983 257.157C604.346 258.299 603.827 259.649 602.788 260.065Z" fill="#DB9E75"/>
<path d="M649.095 277.428C648.534 289.295 646.284 293.478 634.895 292.803C629.028 292.465 618.07 295.547 614.489 291.254C612.85 289.276 602.482 252.916 613.871 253.591C625.347 254.218 649.656 265.513 649.095 277.428Z" fill="#FF5645"/>
<path d="M589.861 258.708C589.861 258.708 591.517 262.423 586.163 262.26C580.809 262.097 579.235 261.847 579.235 261.847L579.943 258.084L589.861 258.708Z" fill="#482D1F"/>
<path d="M552.238 346.986C546.441 342.858 547.534 324.973 555.516 293.331C557.188 285.204 559.183 284.627 561.502 291.601C564.981 302.06 560.563 305.096 560.563 305.096L564.675 254.324C566.42 249.271 569.688 250.389 576.077 254.324C576.438 254.577 582.337 250.057 582.458 250.141C582.515 272.594 588.218 295.369 588.275 317.822C588.166 327.46 587.688 335.331 586.839 341.434C586.054 347.084 581.803 351.63 576.219 352.793C568.054 354.493 560.061 352.557 552.238 346.986Z" fill="#DB9E75"/>
<path d="M560.368 305.184L558.317 323.157" stroke="#482D1F" stroke-width="3" stroke-linecap="round" stroke-linejoin="round"/>
<path d="M565.292 262.371C565.515 262.438 565.84 262.486 566.086 262.39L579.497 260.394L588.891 258.949C592.287 259.668 599.314 260.644 599.228 255.966C599.228 255.966 589.791 253.886 583.135 252.318L582.602 251.99C582.13 251.704 581.736 251.563 581.198 251.499C581.086 251.466 580.984 251.484 580.882 251.502L578.364 251.577L572.91 251.748L569.342 251.85L566.722 251.942C564.307 251.999 562.544 254.261 563.01 256.605L563.611 259.715C563.451 260.903 564.197 262.143 565.292 262.371Z" fill="#DB9E75"/>
<path d="M580.465 254.135C575.111 253.972 572.642 251.372 573.106 251.623L588.075 251.623C586.572 253.406 584.035 254.244 580.465 254.135Z" fill="#482D1F"/>
<path d="M561.459 294.586C558.316 294.586 552.815 293.413 550.916 291.705C548.911 289.91 551.014 264.045 564.149 260.78L561.459 294.586Z" fill="#FF5645"/>
<path d="M616.775 226.943C622.732 233.001 628.411 242.103 625.997 246.294C624.271 249.326 620.627 250.285 616.833 251.204C613.266 252.076 606.294 253.218 597.195 250.458C594.604 249.495 591.926 248.455 589.348 247.441" fill="#482D1F"/>
<path d="M569.328 225.25C564.14 228.161 558.464 233.091 559.239 236.417C559.792 238.769 562.062 240.13 564.381 241.504C566.564 242.788 571.024 245.004 577.687 245.016C579.654 244.898 581.584 244.716 583.565 244.548" fill="#482D1F"/>
<path d="M603.644 240.036C602.218 240.944 600.752 241.196 599.769 241.255C599.163 241.308 598.641 241.652 598.406 242.127L595.989 250.946C595.989 250.946 594.342 250.876 594 250.946C593.077 251.182 590.838 251.711 585.968 252.234C581.297 252.81 581.588 252.727 581.261 252.747C577.872 252.753 575.177 251.977 574.689 251.792C570.556 250.362 567.697 241.371 568.46 229.694C568.501 228.738 568.693 227.822 568.835 226.892L570.839 217.806C571.276 215.773 572.215 213.874 573.639 212.374C574.242 211.729 574.831 211.134 575.43 210.703C582.451 205.166 591.78 208.472 593.432 209.129C593.632 209.183 593.819 209.287 594.02 209.341C595.805 210.303 597.47 210.91 599.289 211.344C600.092 211.559 600.569 212.386 600.404 213.202L597.215 226.11C596.942 227.327 598.172 228.355 599.327 227.858C599.327 227.858 599.377 227.872 599.39 227.821C599.568 227.761 600.822 227.291 602.204 227.554C604.665 227.998 606.662 230.576 606.907 233.276C607.197 236.203 605.669 238.697 603.644 240.036Z" fill="#DB9E75"/>
<path d="M570.706 227.931C570.767 227.302 570.387 226.716 569.785 226.555C569.384 226.448 568.979 226.554 568.64 227.216C567.859 228.727 568.796 231.451 569.69 230.723C570.352 230.255 570.578 228.811 570.706 227.931Z" fill="#482D1F"/>
<path d="M579.715 230.022C579.776 229.394 579.396 228.808 578.794 228.646C578.392 228.539 577.988 228.645 577.649 229.307C576.868 230.818 577.804 233.542 578.698 232.814C579.375 232.297 579.651 230.865 579.715 230.022Z" fill="#482D1F"/>
<path d="M574.493 239.483C574.871 239.476 575.804 239.404 576.102 238.892C576.129 238.792 576.22 238.655 576.196 238.541C576.076 238.187 575.384 238.162 574.454 238.021C572.809 237.741 571.545 237.241 571.545 237.241C571.545 237.241 571.677 238.352 571.861 238.67C572.148 239.607 573.9 239.485 574.493 239.483Z" fill="#482D1F"/>
<path d="M567.979 223.061C567.505 222.826 567.465 222.17 567.91 221.913C568.469 221.633 569.356 221.333 570.373 221.552C572.456 222.002 574.391 223.811 571.996 223.922C570.457 224.047 568.892 223.466 567.979 223.061Z" fill="#482D1F"/>
<path d="M617.278 220.25C616.281 218.154 614.867 216.808 614.259 216.269C610.908 213.328 607.68 213.538 600.096 211.345C598.541 210.928 596.21 210.196 593.432 209.129C593.218 209.125 593.03 209.022 592.83 208.968C591.178 208.31 582.134 205.349 575.467 210.767C575.44 210.867 574.373 211.441 574.446 211.568C574.446 211.568 574.456 211.732 574.552 211.973C574.529 211.859 574.519 211.695 574.496 211.582C575.392 212.252 576.407 213.277 577.695 213.89C581.318 215.614 584.74 215.886 586.858 215.808C587.137 217.173 587.577 218.742 588.28 220.329C590.292 225.061 593.479 228.012 595.595 229.546C594.991 230.997 594.387 232.448 593.797 233.849C594.048 233.916 594.248 233.97 594.513 233.987C594.513 233.987 598.57 233.892 599.444 235.846C599.638 236.328 599.617 236.806 599.536 237.107C598.876 241.177 594.92 245.708 595.728 247.108C596.545 248.671 603.417 247.502 608.998 243.728C610.515 242.683 614.606 239.855 616.954 234.302C617.565 232.422 620.151 226.18 617.278 220.25Z" fill="#482D1F"/>
<path d="M577.71 225.668C577.235 225.433 577.196 224.778 577.691 224.534C578.25 224.254 579.137 223.954 580.204 224.186C582.287 224.637 584.209 226.495 581.827 226.556C580.238 226.668 578.673 226.087 577.71 225.668Z" fill="#482D1F"/>
<path d="M591.839 234.937L595.541 229.747C595.541 229.747 596.673 228.33 598.665 227.52C598.842 227.46 600.097 226.99 601.478 227.252C603.94 227.697 605.937 230.275 606.181 232.974C606.499 235.801 604.984 238.245 603.009 239.597C601.034 240.949 598.906 240.863 598.214 240.839L595.619 240.09" fill="#DB9E75"/>
<path d="M574.401 226.179L573.709 229.166L571.669 234.371C571.588 234.672 571.708 235.027 571.996 235.158C572.634 235.383 573.236 235.544 574.39 235.853" stroke="#482D1F" stroke-width="2" stroke-linecap="round" stroke-linejoin="round"/>
<path d="M602.788 247.441L602.352 251.678L596.091 250.968C595.198 250.89 594.62 250.037 594.748 249.157L595.081 247.311L596.537 243.884L602.788 247.441Z" fill="#482D1F"/>
<path d="M203.04 173.441H6.23145V250.814H203.04V173.441Z" fill="#F2F6FB"/>
<path d="M0 256.007V72.6996C0 44.0204 23.2491 20.7712 51.9284 20.7712H155.785C184.464 20.7712 207.714 44.0204 207.714 72.6996V256.007V276.259H0V256.007ZM38.9463 29.9574V141.764H7.26997V107.232V248.737H200.444V141.764H169.806V30.2865C165.396 28.8296 160.683 28.0412 155.785 28.0412H51.9284C47.4132 28.0412 43.0545 28.7113 38.9463 29.9574Z" fill="#D8DEED"/>
<path d="M56.6019 28.0413V132.937H38.9463V29.9575C43.0545 28.7113 47.4132 28.0413 51.9284 28.0413H56.6019ZM169.806 132.937H154.227V28.0413H155.785C160.683 28.0413 165.396 28.8297 169.806 30.2865V132.937ZM0 248.737H207.714V259.123H0V248.737Z" fill="#E1E5F0"/>
<path d="M147.249 226.765C147.288 229.333 147.321 231.983 147.321 234.664C147.321 234.664 148.463 246.141 143.27 250.944C142.699 251.5 142.024 251.905 141.453 252.259C140.258 252.967 139.22 253.27 139.22 253.27C139.22 253.27 139.168 253.321 139.116 253.321C130.807 255.545 124.005 254.888 120.422 254.989C108.894 255.242 99.5464 255.191 91.4456 254.939C86.5124 254.787 65.5853 256.152 62.9369 252.309C62.885 252.208 62.8331 252.107 62.7811 252.006C62.3138 250.944 61.9503 249.63 61.6906 248.062C61.6387 247.911 61.5868 247.708 61.5868 247.557C60.7287 242.453 60.6474 235.041 61.5187 226.161L36.5821 224.115C34.9498 223.981 33.6998 222.606 33.7215 220.968C33.8326 212.558 34.2882 206.797 35.0882 203.685C38.7866 189.297 45.8541 183.073 46.4783 180.845C50.0269 167.974 53.5543 163.407 54.9806 162.03C56.6192 160.397 58.1967 159.281 59.2478 158.573C66.3414 153.866 73.7787 153.269 77.5707 153.231C77.6754 153.181 77.7793 153.183 77.8831 153.185L96.3194 153.247C97.8197 153.209 98.1246 153.151 97.829 153.491C100.083 153.182 102.661 152.871 105.466 152.604C109.64 152.667 113.428 152.894 116.829 153.285L132.334 153.504C132.438 153.504 132.542 153.504 132.645 153.556C136.436 153.659 143.862 154.386 150.872 159.216C151.911 159.943 153.469 161.085 155.078 162.747C156.48 164.149 159.928 168.777 163.251 181.707C163.836 183.946 170.794 190.292 174.241 204.743C174.986 207.868 175.341 213.637 175.306 222.047C175.299 223.685 174.025 225.038 172.391 225.143L147.249 226.765H147.249Z" fill="#DE3190"/>
<path d="M58.2109 251.898L59.1975 251.379L76.4378 242.188C76.4378 242.188 118.24 232.435 142.283 227.969C146.437 225.009 171.155 225.674 171.83 224.999C173.544 241.512 175.724 257.999 154.858 257.999L50.162 256.208L58.2109 251.898Z" fill="#F2A98A"/>
<path d="M74.6721 210.2C75.7107 206.824 80.6958 191.298 81.8901 188.078" stroke="#482D1F" stroke-width="3" stroke-linecap="round" stroke-linejoin="round"/>
<path d="M135.495 188.078L142.651 226.385" stroke="#482D1F" stroke-width="3" stroke-linecap="round" stroke-linejoin="round"/>
<path d="M101.034 134.524L113.151 139.317L113.255 141.862V141.914L112.943 156.038C112.943 156.454 112.632 156.869 112.216 156.973C110.139 157.596 106.452 158.323 102.142 157.336C99.7537 156.817 97.8323 155.882 96.4822 155.052C96.1706 154.896 96.0148 154.532 96.0148 154.169L96.5681 137.925C95.0841 136.42 92.9956 134.186 91.7567 132.359C90.7181 130.853 87.2909 127.218 86.3561 121.298C86.0965 119.325 85.1099 112.678 89.2122 107.537C90.6662 105.72 92.3279 104.785 93.0549 104.421C96.9495 102.344 100.013 103.279 107.751 102.967C108.374 102.916 109.412 102.916 110.711 102.812C113.099 102.656 114.761 102.448 115.228 102.396C119.071 101.981 127.431 102.708 131.43 108.264C131.638 108.628 131.897 108.991 132.157 109.303C131.118 109.77 129.924 110.497 128.574 110.809C124.731 111.64 121.408 111.068 119.331 110.497C115.644 114.444 111.957 118.39 108.27 122.285C106.304 125.038 103.245 130.469 101.034 134.524Z" fill="#F2A98A"/>
<path d="M113.982 145.237L105.829 143.731L112.891 152.351L113.982 145.237Z" fill="#482D1F"/>
<path d="M134.338 116.521L134.131 125.816C134.079 126.751 134.027 127.685 133.819 128.62C132.677 135.215 130.547 140.719 128.159 144.25C126.393 146.899 124.42 148.457 122.551 148.612C122.031 148.716 119.227 148.82 115.956 147.989C115.644 147.885 115.904 148.041 111.49 146.38C109.776 145.756 108.426 145.237 107.387 144.77C105.518 143.991 104.531 143.472 104.012 143.16C103.649 143.004 103.545 142.9 103.545 142.9C101.104 138.227 99.027 133.969 97.2614 130.23C96.2228 127.997 95.1323 125.764 95.7035 123.012C95.9112 121.921 96.4825 119.221 98.8712 117.819C101.208 116.469 103.804 117.144 104.531 117.352C105.518 117.611 106.297 118.027 106.764 118.338L106.712 105.045C106.712 104.214 107.387 103.487 108.218 103.487C110.036 103.435 111.853 103.279 113.775 102.76C113.982 102.708 114.19 102.708 114.398 102.656C116.163 102.396 126.03 101.358 131.534 108.42C132.053 108.991 132.469 109.666 132.884 110.497C133.871 112.418 134.39 114.444 134.338 116.521Z" fill="#F2A98A"/>
<path d="M132.157 109.303C131.119 109.77 129.924 110.497 128.522 110.809C124.628 111.639 121.2 111.068 119.123 110.497C115.384 114.444 110.295 119.688 106.505 123.635C99.4424 123.946 93.7302 122.908 86.668 123.219C86.668 123.219 85.9929 122.492 85.6294 121.402C85.1101 119.844 84.0196 113.145 88.5374 107.641C89.9914 105.823 91.705 104.889 92.432 104.525C96.3786 102.448 99.4943 103.383 107.387 103.071C108.011 103.019 109.049 103.019 110.399 102.915C112.84 102.76 114.502 102.552 115.021 102.5C118.915 102.085 127.432 102.812 131.482 108.368C131.638 108.628 131.898 108.991 132.157 109.303Z" fill="#482D1F"/>
<path d="M107.855 128.828L107.18 122.181C107.18 122.181 106.868 120.312 105.466 118.546C105.362 118.442 104.428 117.352 103.026 116.884C100.533 116.053 97.4174 117.352 95.7557 119.688C94.042 122.077 94.1978 125.141 95.3402 127.426C96.4827 129.711 98.4559 130.645 99.131 130.957L101.883 131.528L107.855 128.828Z" fill="#F2A98A"/>
<path d="M128.47 126.543C128.47 125.92 128.886 125.349 129.509 125.245C129.924 125.193 130.288 125.297 130.547 125.972C131.222 127.581 130.08 130.178 129.197 129.399C128.678 128.88 128.522 127.426 128.47 126.543Z" fill="#482D1F"/>
<path d="M119.175 126.439C119.227 125.816 119.746 125.297 120.369 125.297C120.785 125.297 121.148 125.452 121.356 126.127C121.875 127.789 120.421 130.282 119.642 129.399C119.123 128.776 119.123 127.322 119.175 126.439Z" fill="#482D1F"/>
<path d="M123.433 137.136C123.07 137.033 122.187 136.773 122.031 136.202C122.031 136.098 121.979 135.942 122.031 135.838C122.239 135.475 122.862 135.682 123.797 135.734C125.458 135.838 126.809 135.682 126.809 135.682C126.809 135.682 126.445 136.721 126.185 137.033C125.614 137.811 123.953 137.292 123.433 137.136Z" fill="#482D1F"/>
<path d="M132.521 122.908C133.04 122.804 133.196 122.129 132.832 121.765C132.365 121.35 131.534 120.935 130.495 120.935C128.366 120.935 126.081 122.337 128.47 122.96C129.872 123.375 131.534 123.116 132.521 122.908Z" fill="#482D1F"/>
<path d="M121.823 123.271C122.342 123.168 122.498 122.492 122.083 122.129C121.615 121.714 120.784 121.298 119.694 121.298C117.565 121.298 115.28 122.752 117.669 123.323C119.175 123.739 120.784 123.479 121.823 123.271Z" fill="#482D1F"/>
<path d="M126.445 123.583V126.647L127.224 132.203C127.276 132.515 127.016 132.826 126.705 132.878C126.029 132.93 125.406 132.982 124.212 132.982" stroke="#482D1F" stroke-width="2" stroke-linecap="round" stroke-linejoin="round"/>
<path d="M94.1456 122.441C93.886 124.102 94.1976 125.868 94.9246 127.27C96.067 129.555 98.0403 130.49 98.7153 130.801" stroke="#482D1F" stroke-width="2" stroke-linecap="round" stroke-linejoin="round"/>
<path d="M88.61 198.179C93.0923 179.676 96.1088 168.708 97.6594 165.278C99.1915 161.888 99.4129 164.368 100.488 165.777C101.045 166.507 100.82 164.705 101.686 164.857C103.379 165.156 104.375 166.3 104.676 168.289C106.175 169.158 106.806 170.262 106.57 171.601C106.399 172.571 107.754 174.58 104.9 186.507C103.886 190.744 106.577 196.538 105.535 201.076L105.578 201.084C103.009 210.738 94.5937 225.571 80.3326 245.582C58.9409 275.598 40.7632 259.874 35.881 256.499C32.6263 254.249 32.6263 243.403 35.881 223.96L59.5132 225.934L88.61 198.179Z" fill="#F2A98A"/>
<path d="M59.146 225.934L54.0312 228.963" stroke="#482D1F" stroke-width="3" stroke-linecap="round" stroke-linejoin="round"/>
<path d="M84.6427 239.39L71.6606 255.487" stroke="#482D1F" stroke-width="3" stroke-linecap="round" stroke-linejoin="round"/>
<path d="M398.81 323.514H177.076C171.34 323.514 166.69 328.163 166.69 333.899V363.499C166.69 369.234 171.34 373.884 177.076 373.884H398.81C404.546 373.884 409.196 369.234 409.196 363.499V333.899C409.196 328.163 404.546 323.514 398.81 323.514Z" fill="#D8DEED"/>
<path d="M354.151 341.689H385.308C386.967 341.689 388.444 342.059 389.674 342.737C390.905 343.415 391.891 344.4 392.569 345.631C393.247 346.862 393.617 348.338 393.617 349.997C393.617 351.656 393.247 353.132 392.569 354.363C391.891 355.594 390.905 356.58 389.674 357.258C388.444 357.936 386.967 358.306 385.308 358.306H354.151C352.492 358.306 351.016 357.936 349.785 357.258C348.554 356.58 347.569 355.594 346.891 354.363C346.213 353.132 345.843 351.656 345.843 349.997C345.843 348.338 346.213 346.862 346.891 345.631C347.569 344.4 348.554 343.415 349.785 342.737C351.016 342.059 352.492 341.689 354.151 341.689Z" fill="#474BFF"/>
<path d="M326.629 341.689H188.5C187.353 341.689 186.423 342.619 186.423 343.766V356.229C186.423 357.376 187.353 358.306 188.5 358.306H326.629C327.777 358.306 328.707 357.376 328.707 356.229V343.766C328.707 342.619 327.777 341.689 326.629 341.689Z" fill="white"/>
<path d="M449.18 143.322H262.238C256.502 143.322 251.853 147.972 251.853 153.708V287.683C251.853 293.419 256.502 298.069 262.238 298.069H449.18C454.916 298.069 459.566 293.419 459.566 287.683V153.708C459.566 147.972 454.916 143.322 449.18 143.322Z" fill="#F2F6FB"/>
<path d="M284.853 205.57C274.502 205.57 266.111 197.172 266.111 186.813C266.111 176.454 274.502 168.056 284.853 168.056C295.203 168.056 303.594 176.454 303.594 186.813C303.594 197.172 295.203 205.57 284.853 205.57ZM284.843 186.56C287.395 186.56 289.464 184.517 289.464 181.997C289.464 179.477 287.395 177.434 284.843 177.434C282.291 177.434 280.222 179.477 280.222 181.997C280.222 184.517 282.291 186.56 284.843 186.56ZM284.843 188.841C280.217 188.841 276.467 192.543 276.467 197.11H293.219C293.219 192.543 289.469 188.841 284.843 188.841ZM284.853 274.972C274.502 274.972 266.111 266.574 266.111 256.215C266.111 245.855 274.502 237.457 284.853 237.457C295.203 237.457 303.594 245.855 303.594 256.215C303.594 266.574 295.203 274.972 284.853 274.972ZM284.843 255.961C287.395 255.961 289.464 253.918 289.464 251.399C289.464 248.879 287.395 246.836 284.843 246.836C282.291 246.836 280.222 248.879 280.222 251.399C280.222 253.918 282.291 255.961 284.843 255.961ZM284.843 258.242C280.217 258.242 276.467 261.945 276.467 266.512H293.219C293.219 261.945 289.469 258.242 284.843 258.242ZM314.003 252.463H413.13C413.704 252.463 414.169 252.928 414.169 253.502V258.927C414.169 259.501 413.704 259.966 413.13 259.966H314.003C313.43 259.966 312.965 259.501 312.965 258.927V253.502C312.965 252.928 313.43 252.463 314.003 252.463ZM314.003 264.655H403.759C404.333 264.655 404.798 265.12 404.798 265.694V271.12C404.798 271.693 404.333 272.158 403.759 272.158H314.003C313.43 272.158 312.965 271.693 312.965 271.12V265.694C312.965 265.12 313.43 264.655 314.003 264.655Z" fill="#D8DEED"/>
<path d="M415.784 168.056H315.042C313.895 168.056 312.965 168.986 312.965 170.133V222.25C312.965 223.397 313.895 224.327 315.042 224.327H415.784C416.931 224.327 417.861 223.397 417.861 222.25V170.133C417.861 168.986 416.931 168.056 415.784 168.056Z" fill="#3ABF7C"/>
<path fill-rule="evenodd" clip-rule="evenodd" d="M366.255 205.522L365.271 205.535L365.279 205.522H352.388C351.812 205.522 351.589 205.131 351.893 204.642L360.85 190.25C361.152 189.764 361.655 189.76 361.97 190.238L368.535 200.28L370.896 196.478C371.198 195.991 371.704 195.975 372.034 196.454L377.506 204.408C377.832 204.882 377.636 205.28 377.056 205.298L372.497 205.44L371.744 205.45L371.788 205.522C371.788 205.522 371.323 205.522 370.746 205.522H366.255ZM371.66 192.163C370.453 192.163 369.474 191.175 369.474 189.957C369.474 188.739 370.453 187.751 371.66 187.751C372.867 187.751 373.845 188.739 373.845 189.957C373.845 191.175 372.867 192.163 371.66 192.163Z" fill="white"/>
<path d="M424.375 240.271H314.004C313.43 240.271 312.965 240.736 312.965 241.31V246.735C312.965 247.309 313.43 247.774 314.004 247.774H424.375C424.949 247.774 425.414 247.309 425.414 246.735V241.31C425.414 240.736 424.949 240.271 424.375 240.271Z" fill="#E1E5F0"/>
</svg>
