<svg width="340" height="418" viewBox="0 0 340 418" fill="none" xmlns="http://www.w3.org/2000/svg">
<path d="M332.35 249.781H10.2002V376.37H332.35V249.781Z" fill="#F2F6FB"/>
<path d="M0 384.866V84.9594C0 38.0376 38.0558 0 85 0H255C301.944 0 340 38.0376 340 84.9594V384.866V418H0V384.866ZM63.75 15.0294V197.955H11.9V141.457V372.972H328.1V197.955H277.95V15.5677C270.732 13.1842 263.017 11.8943 255 11.8943H85C77.6092 11.8943 70.4746 12.9906 63.75 15.0294Z" fill="#D8DEED"/>
<path d="M92.65 11.8945V183.512H63.75V15.0296C70.4746 12.9908 77.6092 11.8945 85 11.8945H92.65ZM277.95 183.512H252.45V11.8945H255C263.017 11.8945 270.732 13.1845 277.95 15.568V183.512ZM0 372.972H340V389.964H0V372.972Z" fill="#E1E5F0"/>
<path d="M241.027 337.024C241.091 341.225 241.145 345.56 241.145 349.947C241.145 349.947 243.015 368.725 234.515 376.583C233.58 377.493 232.475 378.155 231.54 378.734C229.585 379.892 227.885 380.388 227.885 380.388C227.885 380.388 227.8 380.471 227.715 380.471C214.115 384.111 202.98 383.035 197.115 383.201C178.245 383.615 162.945 383.532 149.685 383.118C141.61 382.87 107.355 385.103 103.02 378.817C102.935 378.651 102.85 378.486 102.765 378.32C102 376.583 101.405 374.432 100.98 371.868C100.895 371.62 100.81 371.289 100.81 371.041C99.405 362.691 99.272 350.564 100.698 336.035L59.8802 332.688C57.2083 332.469 55.1623 330.219 55.1977 327.54C55.3797 313.78 56.1254 304.354 57.4348 299.263C63.4886 275.722 75.0573 265.54 76.079 261.894C81.8876 240.837 87.6615 233.365 89.9962 231.111C92.6783 228.439 95.2605 226.615 96.981 225.455C108.592 217.755 120.766 216.778 126.973 216.716C127.145 216.634 127.315 216.637 127.485 216.64L157.662 216.742C160.118 216.68 160.617 216.585 160.133 217.142C163.823 216.635 168.042 216.127 172.635 215.689C179.467 215.793 185.667 216.164 191.234 216.805L216.613 217.162C216.783 217.162 216.953 217.162 217.123 217.247C223.328 217.417 235.483 218.606 246.958 226.507C248.658 227.697 251.208 229.566 253.843 232.285C256.138 234.579 261.781 242.15 267.221 263.305C268.179 266.969 279.568 277.351 285.21 300.994C286.43 306.107 287.011 315.545 286.953 329.305C286.941 331.985 284.856 334.198 282.181 334.371L241.027 337.024Z" fill="#DE3190"/>
<path d="M95.2847 378.144L96.8997 377.294L125.12 362.256C125.12 362.256 193.545 346.3 232.9 338.994C239.7 334.151 280.16 335.239 281.265 334.135C284.07 361.152 287.638 388.125 253.484 388.125L82.1097 385.195L95.2847 378.144Z" fill="#F2A98A"/>
<path d="M122.228 309.921C123.928 304.399 132.088 278.996 134.043 273.729" stroke="#482D1F" stroke-width="3" stroke-linecap="round" stroke-linejoin="round"/>
<path d="M221.79 273.729L233.503 336.402" stroke="#482D1F" stroke-width="3" stroke-linecap="round" stroke-linejoin="round"/>
<path d="M165.378 186.109L185.213 193.952L185.383 198.115V198.2L184.873 221.309C184.873 221.988 184.363 222.668 183.683 222.838C180.283 223.857 174.248 225.047 167.193 223.433C163.283 222.583 160.138 221.054 157.928 219.694C157.418 219.44 157.163 218.845 157.163 218.25L158.069 191.674C155.64 189.211 152.221 185.557 150.193 182.567C148.493 180.103 142.883 174.156 141.353 164.471C140.928 161.242 139.313 150.368 146.028 141.957C148.408 138.983 151.128 137.454 152.318 136.859C158.693 133.461 163.708 134.99 176.373 134.48C177.393 134.395 179.093 134.395 181.218 134.225C185.128 133.97 187.848 133.631 188.613 133.546C194.903 132.866 208.588 134.055 215.133 143.146C215.473 143.741 215.898 144.335 216.323 144.845C214.623 145.61 212.668 146.799 210.458 147.309C204.168 148.668 198.728 147.734 195.328 146.799C189.293 153.256 183.258 159.713 177.223 166.085C174.004 170.589 168.998 179.475 165.378 186.109Z" fill="#F2A98A"/>
<path d="M186.573 203.637L173.228 201.173L184.788 215.277L186.573 203.637Z" fill="#482D1F"/>
<path d="M219.895 156.655L219.555 171.862C219.47 173.392 219.385 174.921 219.045 176.45C217.175 187.24 213.69 196.246 209.78 202.023C206.89 206.356 203.66 208.905 200.6 209.159C199.75 209.329 195.16 209.499 189.805 208.14C189.295 207.97 189.72 208.225 182.495 205.506C179.69 204.487 177.48 203.637 175.78 202.872C172.72 201.598 171.105 200.749 170.255 200.239C169.66 199.984 169.49 199.814 169.49 199.814C165.495 192.168 162.095 185.201 159.205 179.084C157.505 175.431 155.72 171.777 156.655 167.275C156.995 165.49 157.93 161.072 161.84 158.779C165.665 156.57 169.915 157.674 171.105 158.014C172.72 158.439 173.995 159.118 174.76 159.628L174.675 137.879C174.675 136.519 175.78 135.33 177.14 135.33C180.115 135.245 183.09 134.99 186.235 134.14C186.575 134.055 186.915 134.055 187.255 133.97C190.145 133.546 206.295 131.846 215.305 143.401C216.155 144.335 216.835 145.44 217.515 146.799C219.13 149.943 219.98 153.256 219.895 156.655Z" fill="#F2A98A"/>
<path d="M216.324 144.845C214.624 145.61 212.669 146.799 210.374 147.309C203.999 148.668 198.389 147.734 194.989 146.799C188.869 153.256 180.539 161.837 174.334 168.294C162.774 168.804 153.424 167.105 141.864 167.614C141.864 167.614 140.759 166.425 140.164 164.641C139.314 162.092 137.529 151.132 144.924 142.127C147.304 139.153 150.109 137.624 151.299 137.029C157.759 133.631 162.859 135.16 175.779 134.65C176.799 134.565 178.499 134.565 180.709 134.395C184.704 134.14 187.424 133.801 188.274 133.716C194.649 133.036 208.589 134.225 215.219 143.316C215.474 143.741 215.899 144.335 216.324 144.845Z" fill="#482D1F"/>
<path d="M176.544 176.79L175.439 165.915C175.439 165.915 174.929 162.857 172.634 159.968C172.464 159.798 170.934 158.014 168.639 157.249C164.559 155.89 159.459 158.014 156.739 161.837C153.934 165.745 154.189 170.758 156.059 174.496C157.929 178.234 161.159 179.764 162.264 180.273L166.769 181.208L176.544 176.79Z" fill="#F2A98A"/>
<path d="M210.289 173.052C210.289 172.032 210.969 171.098 211.989 170.928C212.669 170.843 213.264 171.013 213.689 172.117C214.794 174.751 212.924 178.999 211.479 177.725C210.629 176.875 210.374 174.496 210.289 173.052Z" fill="#482D1F"/>
<path d="M195.074 172.882C195.159 171.862 196.009 171.013 197.029 171.013C197.709 171.013 198.304 171.268 198.644 172.372C199.494 175.091 197.114 179.169 195.839 177.724C194.989 176.705 194.989 174.326 195.074 172.882Z" fill="#482D1F"/>
<path d="M202.042 190.383C201.447 190.213 200.002 189.789 199.747 188.854C199.747 188.684 199.662 188.429 199.747 188.259C200.087 187.665 201.107 188.004 202.637 188.089C205.357 188.259 207.567 188.004 207.567 188.004C207.567 188.004 206.972 189.704 206.547 190.213C205.612 191.488 202.892 190.638 202.042 190.383Z" fill="#482D1F"/>
<path d="M216.92 167.104C217.77 166.935 218.025 165.83 217.43 165.235C216.665 164.556 215.305 163.876 213.605 163.876C210.12 163.876 206.38 166.17 210.29 167.189C212.585 167.869 215.305 167.444 216.92 167.104Z" fill="#482D1F"/>
<path d="M199.409 167.699C200.259 167.529 200.514 166.425 199.834 165.83C199.069 165.151 197.709 164.471 195.924 164.471C192.439 164.471 188.699 166.85 192.609 167.784C195.074 168.464 197.709 168.039 199.409 167.699Z" fill="#482D1F"/>
<path d="M206.975 168.209V173.222L208.25 182.312C208.335 182.822 207.91 183.332 207.4 183.417C206.295 183.502 205.275 183.587 203.32 183.587" stroke="#482D1F" stroke-width="2" stroke-linecap="round" stroke-linejoin="round"/>
<path d="M154.105 166.34C153.68 169.059 154.19 171.947 155.38 174.241C157.25 177.979 160.48 179.509 161.585 180.018" stroke="#482D1F" stroke-width="2" stroke-linecap="round" stroke-linejoin="round"/>
<path d="M145.044 290.255C152.38 259.982 157.318 242.038 159.856 236.426C162.364 230.88 162.726 234.937 164.487 237.242C165.399 238.436 165.03 235.488 166.448 235.738C169.218 236.226 170.849 238.098 171.341 241.353C173.795 242.775 174.829 244.58 174.442 246.77C174.162 248.357 176.38 251.646 171.708 271.159C170.048 278.091 174.453 287.569 172.748 294.995L172.818 295.007C168.613 310.803 154.838 335.071 131.494 367.81C96.4791 416.92 66.7245 391.194 58.733 385.671C53.4054 381.99 53.4054 364.245 58.733 332.436L97.4158 335.664L145.044 290.255Z" fill="#F2A98A"/>
<path d="M96.8145 335.664L88.4424 340.62" stroke="#482D1F" stroke-width="3" stroke-linecap="round" stroke-linejoin="round"/>
<path d="M138.549 357.679L117.299 384.016" stroke="#482D1F" stroke-width="3" stroke-linecap="round" stroke-linejoin="round"/>
</svg>
