<svg width="340" height="419" viewBox="0 0 340 419" fill="none" xmlns="http://www.w3.org/2000/svg">
<path d="M334.05 256.861H11.8999V383.59H334.05V256.861Z" fill="#F2F6FB"/>
<path d="M70.5499 11.908V44.2282C70.5499 76.6399 44.2915 102.915 11.9 102.915V70.5946C11.9 38.1829 38.1585 11.908 70.5499 11.908ZM269.45 11.908C301.841 11.908 328.1 38.1829 328.1 70.5946V102.915C295.708 102.915 269.45 76.6399 269.45 44.2282V11.908ZM0 373.384H340V389.544H0V373.384Z" fill="#E1E5F0"/>
<path d="M35.0134 98.1815C27.921 101.228 20.1076 102.914 11.9005 102.914V205.829H63.7504L35.0134 98.1815ZM328.1 102.914C319.893 102.914 312.08 101.228 304.987 98.1815L276.25 205.829H328.1V102.914ZM340 389.543V418.462H0.000488281V389.543H340ZM0.000488281 373.383V85.0532C0.000488281 38.0796 38.0562 0 85.0004 0H255C301.944 0 340 38.0796 340 85.0532V373.383H0.000488281ZM328.1 373.383V85.0532C328.1 44.6559 295.372 11.9074 255 11.9074H85.0004C44.6284 11.9074 11.9005 44.6559 11.9005 85.0532V373.383H328.1Z" fill="#D8DEED"/>
<path d="M147.652 220.016L166.182 214.487C193.127 210.49 216.842 221.972 223.642 246.807L253.316 372.345L253.562 373.383H213.173H142.647L116.542 285.166C109.657 260.246 123.172 226.99 147.652 220.016Z" fill="#FF5645"/>
<path d="M219.308 293.757L172.303 283.295C170.773 282.955 169.838 281.424 170.178 279.893L171.623 273.514C171.963 271.983 173.493 271.047 175.023 271.388L222.028 281.849C223.558 282.189 224.493 283.72 224.153 285.251L222.708 291.63C222.368 293.076 220.838 294.097 219.308 293.757Z" fill="#FF4B38"/>
<path d="M133.115 228.89C133.115 228.89 131.5 235.354 140.085 233.568C148.67 231.782 151.135 230.931 151.135 230.931L148.925 225.062L133.115 228.89Z" fill="#482D1F"/>
<path d="M230.018 361.573C236.648 348.815 243.647 317.806 251.013 268.546L204.863 271.684C199.93 290.217 197.463 299.484 197.463 299.484L180.123 217.067C175.873 209.413 167.203 213.835 158.023 222C157.513 222.511 146.718 216.897 146.548 217.067C152.838 253.3 150.118 291.659 156.408 327.892C160.233 348.256 167.223 364.126 177.376 375.501C180.619 379.133 184.863 381.724 189.574 382.946C206.808 387.418 220.29 380.293 230.018 361.573Z" fill="#DB9E75"/>
<path d="M197.802 299.569L206.216 327.977" stroke="#482D1F" stroke-width="3" stroke-linecap="round" stroke-linejoin="round"/>
<path d="M178.335 226.934C177.995 227.104 177.485 227.274 177.06 227.189L154.876 227.784L139.321 228.124C134.051 230.251 123.001 233.823 121.811 226.253C121.811 226.253 136.431 220.214 146.716 215.792L147.481 215.111C148.161 214.516 148.756 214.176 149.606 213.921C149.776 213.835 149.946 213.835 150.116 213.835L154.196 213.24L163.036 211.964L168.816 211.114L173.065 210.518C176.975 209.923 180.46 213.07 180.375 216.982L180.29 222.171C180.885 224.042 180.035 226.253 178.335 226.934Z" fill="#DB9E75"/>
<path d="M254.134 255.373C253.216 274.81 249.533 281.661 230.89 280.555C221.287 280.002 203.35 285.05 197.489 278.018C194.806 274.779 177.835 215.225 196.478 216.331C215.261 217.358 255.052 235.857 254.134 255.373Z" fill="#FF5645"/>
<path d="M157.176 224.712C157.176 224.712 159.888 230.797 151.124 230.53C142.359 230.262 139.784 229.853 139.784 229.853L140.942 223.689L157.176 224.712Z" fill="#482D1F"/>
<path d="M95.5927 369.302C86.1043 362.54 87.8927 333.246 100.958 281.421C103.695 268.11 106.961 267.165 110.757 278.586C116.452 295.718 109.219 300.691 109.219 300.691L115.95 217.532C118.807 209.255 124.156 211.086 134.614 217.532C135.204 217.946 144.861 210.542 145.058 210.68C145.152 247.455 154.487 284.759 154.58 321.534C154.403 337.32 153.62 350.212 152.231 360.209C150.945 369.462 143.987 376.909 134.846 378.813C121.482 381.597 108.398 378.427 95.5927 369.302Z" fill="#DB9E75"/>
<path d="M108.898 300.834L105.541 330.272" stroke="#482D1F" stroke-width="3" stroke-linecap="round" stroke-linejoin="round"/>
<path d="M116.959 230.712C117.324 230.821 117.855 230.9 118.259 230.742L140.21 227.474L155.588 225.106C161.147 226.284 172.649 227.882 172.507 220.221C172.507 220.221 157.062 216.814 146.165 214.245L145.294 213.708C144.521 213.24 143.876 213.008 142.994 212.905C142.812 212.851 142.645 212.88 142.477 212.91L138.356 213.032L129.429 213.312L123.589 213.479L119.301 213.631C115.347 213.724 112.461 217.428 113.223 221.267L114.207 226.361C113.946 228.308 115.167 230.338 116.959 230.712Z" fill="#DB9E75"/>
<path d="M141.796 217.222C133.032 216.954 128.991 212.696 129.751 213.107L154.253 213.107C151.791 216.029 147.639 217.4 141.796 217.222Z" fill="#482D1F"/>
<path d="M110.687 283.476C105.543 283.476 96.5383 281.555 93.4292 278.758C90.1476 275.817 93.5894 233.453 115.089 228.106L110.687 283.476Z" fill="#FF5645"/>
<path d="M201.232 172.683C210.982 182.606 220.278 197.514 216.328 204.379C213.502 209.345 207.537 210.916 201.326 212.421C195.488 213.849 184.075 215.72 169.182 211.199C164.941 209.621 160.557 207.918 156.338 206.258" fill="#482D1F"/>
<path d="M123.568 169.911C115.075 174.678 105.785 182.754 107.054 188.201C107.959 192.054 111.674 194.283 115.471 196.533C119.044 198.636 126.344 202.266 137.25 202.285C140.47 202.091 143.63 201.794 146.871 201.518" fill="#482D1F"/>
<path d="M179.737 194.129C177.403 195.616 175.004 196.03 173.394 196.126C172.403 196.213 171.548 196.776 171.164 197.554L167.206 211.998C167.206 211.998 164.511 211.884 163.952 211.998C162.44 212.385 158.776 213.252 150.803 214.108C143.158 215.052 143.635 214.916 143.098 214.948C137.552 214.958 133.14 213.687 132.341 213.385C125.576 211.042 120.896 196.315 122.146 177.191C122.213 175.624 122.527 174.123 122.759 172.6L126.04 157.718C126.756 154.388 128.293 151.278 130.623 148.821C131.609 147.765 132.574 146.79 133.555 146.085C145.048 137.015 160.317 142.43 163.021 143.507C163.349 143.595 163.656 143.765 163.984 143.853C166.906 145.429 169.632 146.424 172.609 147.134C173.923 147.487 174.704 148.841 174.434 150.177L169.213 171.319C168.767 173.313 170.78 174.997 172.67 174.183C172.67 174.183 172.752 174.205 172.774 174.123C173.065 174.025 175.119 173.255 177.379 173.685C181.408 174.413 184.678 178.635 185.078 183.057C185.554 187.851 183.052 191.936 179.737 194.129Z" fill="#DB9E75"/>
<path d="M125.822 174.302C125.922 173.272 125.299 172.313 124.314 172.049C123.657 171.873 122.994 172.047 122.44 173.131C121.161 175.606 122.694 180.068 124.158 178.875C125.243 178.11 125.612 175.743 125.822 174.302Z" fill="#482D1F"/>
<path d="M140.57 177.728C140.67 176.698 140.047 175.738 139.061 175.474C138.404 175.298 137.742 175.473 137.187 176.557C135.909 179.032 137.442 183.494 138.905 182.301C140.012 181.453 140.464 179.108 140.57 177.728Z" fill="#482D1F"/>
<path d="M132.02 193.223C132.639 193.212 134.166 193.094 134.655 192.256C134.699 192.092 134.847 191.867 134.809 191.681C134.612 191.1 133.479 191.06 131.957 190.828C129.264 190.37 127.195 189.551 127.195 189.551C127.195 189.551 127.412 191.371 127.712 191.891C128.181 193.426 131.051 193.227 132.02 193.223Z" fill="#482D1F"/>
<path d="M121.359 166.325C120.582 165.941 120.517 164.867 121.246 164.446C122.161 163.987 123.613 163.496 125.277 163.854C128.687 164.592 131.854 167.554 127.933 167.736C125.414 167.941 122.853 166.99 121.359 166.325Z" fill="#482D1F"/>
<path d="M202.055 161.721C200.422 158.29 198.109 156.084 197.113 155.201C191.627 150.384 186.343 150.728 173.93 147.136C171.384 146.454 167.57 145.255 163.022 143.507C162.671 143.501 162.365 143.331 162.036 143.243C159.333 142.166 144.528 137.316 133.616 146.189C133.572 146.353 131.824 147.294 131.944 147.502C131.944 147.502 131.96 147.771 132.119 148.165C132.081 147.979 132.065 147.71 132.026 147.524C133.493 148.622 135.155 150.3 137.262 151.305C143.194 154.128 148.794 154.573 152.26 154.446C152.718 156.682 153.437 159.252 154.59 161.851C157.882 169.602 163.1 174.435 166.563 176.948C165.574 179.325 164.586 181.701 163.619 183.996C164.03 184.106 164.358 184.194 164.791 184.222C164.791 184.222 171.433 184.065 172.863 187.267C173.18 188.056 173.146 188.839 173.014 189.332C171.933 195.999 165.458 203.42 166.78 205.712C168.118 208.272 179.367 206.357 188.502 200.177C190.984 198.465 197.68 193.832 201.524 184.737C202.524 181.659 206.758 171.435 202.055 161.721Z" fill="#482D1F"/>
<path d="M137.287 170.596C136.51 170.211 136.445 169.137 137.256 168.738C138.171 168.279 139.623 167.788 141.369 168.168C144.779 168.906 147.924 171.951 144.025 172.05C141.424 172.233 138.863 171.283 137.287 170.596Z" fill="#482D1F"/>
<path d="M160.414 185.778L166.474 177.277C166.474 177.277 168.328 174.956 171.587 173.628C171.877 173.53 173.932 172.76 176.192 173.19C180.221 173.918 183.491 178.141 183.89 182.563C184.41 187.193 181.931 191.195 178.698 193.41C175.464 195.626 171.982 195.484 170.849 195.445L166.602 194.218" fill="#DB9E75"/>
<path d="M131.871 171.433L130.738 176.325L127.398 184.851C127.266 185.344 127.463 185.925 127.933 186.14C128.979 186.508 129.964 186.772 131.852 187.278" stroke="#482D1F" stroke-width="2" stroke-linecap="round" stroke-linejoin="round"/>
<path d="M178.337 206.257L177.622 213.198L167.373 212.035C165.912 211.908 164.966 210.509 165.176 209.069L165.722 206.045L168.105 200.432L178.337 206.257Z" fill="#482D1F"/>
</svg>
